<?xml version="1.0" encoding="UTF-8"?>
<svg width="24px" height="24px" viewBox="0 0 24 24" version="1.1" xmlns="http://www.w3.org/2000/svg" xmlns:xlink="http://www.w3.org/1999/xlink">
    <!-- Generator: sketchtool 51.1 (57501) - http://www.bohemiancoding.com/sketch -->
    <title>51F99E39-434E-4538-9276-8747E8BCC1A2</title>
    <desc>Created with sketchtool.</desc>
    <defs>
        <path d="M16.5833333,10.1666667 C13.045,10.1666667 10.1666667,13.045 10.1666667,16.5833333 C10.1666667,20.1216667 13.045,23 16.5833333,23 C20.1216667,23 23,20.1216667 23,16.5833333 C23,13.045 20.1216667,10.1666667 16.5833333,10.1666667 Z M12,16.5833333 C12,14.0560833 14.0560833,12 16.5833333,12 C19.1105833,12 21.1666667,14.0560833 21.1666667,16.5833333 C21.1666667,19.1105833 19.1105833,21.1666667 16.5833333,21.1666667 C14.0560833,21.1666667 12,19.1105833 12,16.5833333 Z M19.3333333,15.6666667 L17.5,15.6666667 L17.5,12.9166667 L15.6666667,12.9166667 L15.6666667,17.5 L19.3333333,17.5 L19.3333333,15.6666667 Z M4.66666667,9.25 L10.1666667,9.25 L10.1666667,11.0833333 L4.66666667,11.0833333 L4.66666667,9.25 Z M4.66666667,12.9166667 L8.33333333,12.9166667 L8.33333333,14.75 L4.66666667,14.75 L4.66666667,12.9166667 Z M2.83333333,2.83333333 L2.83333333,19.3333333 L8.33333333,19.3333333 L8.33333333,21.1666667 L2.83333333,21.1666667 C1.82225,21.1666667 1,20.3444167 1,19.3333333 L1,2.83333333 C1,1.82316667 1.82225,1 2.83333333,1 L13.2961667,1 L17.5,5.20383333 L17.5,8.33333333 L15.6666667,8.33333333 L15.6666667,6.5 L12,6.5 L12,2.83333333 L2.83333333,2.83333333 Z" id="path-1"></path>
    </defs>
    <g id="Symbols" stroke="none" stroke-width="1" fill="none" fill-rule="evenodd">
        <g id="icn/history">
            <mask id="mask-2" fill="white">
                <use xlink:href="#path-1"></use>
            </mask>
            <use id="Combined-Shape" fill="#9B9B9B" fill-rule="nonzero" xlink:href="#path-1"></use>
        </g>
    </g>
</svg>