<?xml version="1.0" encoding="UTF-8"?>
<svg width="135px" height="43px" viewBox="0 0 135 43" version="1.1" xmlns="http://www.w3.org/2000/svg" xmlns:xlink="http://www.w3.org/1999/xlink">
    <!-- Generator: sketchtool 51 (57462) - http://www.bohemiancoding.com/sketch -->
    <title>AAC265C2-7486-4B6B-AC03-C461B7469113</title>
    <desc>Created with sketchtool.</desc>
    <defs></defs>
    <g id="Symbols" stroke="none" stroke-width="1" fill="none" fill-rule="evenodd">
        <g id="logo/color">
            <g id="-g-Logo">
                <path d="M61.6724644,19.9999256 C57.4216522,19.9999256 54.5747644,17.0003366 54.5747644,12.7084623 C54.5747644,8.2920081 57.1745291,5.04177149 61.7553298,5.04177149 C65.0975687,5.04177149 68.1503309,6.79184168 68.3978224,10.4165621 L64.6025858,10.4165621 C64.3543579,8.8330944 63.3651288,7.95768742 61.7553298,7.95768742 C59.2789426,7.95768742 58.4532347,10.500979 58.4532347,12.5831386 C58.4532347,14.625135 59.2380623,17.0832659 61.6724644,17.0832659 C63.4468894,17.0832659 64.4781036,15.9163045 64.7259633,14.1669781 L68.4810561,14.1669781 C67.9853367,17.9590448 65.3874135,19.9999256 61.6724644,19.9999256 Z M77.4767794,20 C73.0613412,20 70.2137169,17.0416897 70.2137169,12.5419342 C70.2137169,7.99978431 73.0613412,5.04184587 77.4767794,5.04184587 C81.9342027,5.04184587 84.7810905,7.99978431 84.7810905,12.5419342 C84.7810905,17.0416897 81.9342027,20 77.4767794,20 Z M77.4767794,7.9577618 C74.8766465,7.9577618 74.0936603,10.2511496 74.0936603,12.5419342 C74.0936603,14.7918119 74.8766465,17.0833403 77.4767794,17.0833403 C80.1181609,17.0833403 80.9029885,14.7918119 80.9029885,12.5419342 C80.9029885,10.2511496 80.1181609,7.9577618 77.4767794,7.9577618 Z M93.446015,2.91703157 C92.4151691,2.91703157 92.0019469,3.37407286 92.0019469,4.54140612 L92.0019469,5.41644121 L94.6429601,5.41644121 L94.6429601,7.99952399 L92.0019469,7.99952399 L92.0019469,19.624884 L88.1231084,19.624884 L88.1231084,7.99952399 L85.812452,7.99952399 L85.812452,5.41644121 L88.1231084,5.41644121 L88.1231084,4.29113046 C88.1231084,1.79134894 89.6909222,0 92.8269182,0 C93.5288805,0 94.231211,0.0833012586 94.8911881,0.0833012586 L94.8911881,2.99958907 C94.4363489,2.95756656 93.942471,2.91703157 93.446015,2.91703157 Z M103.349943,2.91703157 C102.317624,2.91703157 101.90477,3.37407286 101.90477,4.54140612 L101.90477,5.41644121 L104.54652,5.41644121 L104.54652,7.99952399 L101.90477,7.99952399 L101.90477,19.624884 L98.0263002,19.624884 L98.0263002,7.99952399 L95.7156438,7.99952399 L95.7156438,5.41644121 L98.0263002,5.41644121 L98.0263002,4.29113046 C98.0263002,1.79134894 99.5926409,0 102.73011,0 C103.432441,0 104.134034,0.0833012586 104.79438,0.0833012586 L104.79438,2.99958907 C104.339909,2.95756656 103.844926,2.91703157 103.349943,2.91703157 Z M109.455615,13.6668731 C109.62061,15.4165714 110.487566,17.0833403 112.758079,17.0833403 C114.407653,17.0833403 115.522101,16.1242602 115.934587,14.6252094 L119.318811,15.4585939 C118.245611,18.4998336 116.058332,20 112.758079,20 C108.218527,20 105.617657,16.9576447 105.617657,12.5832129 C105.617657,8.41666248 108.341904,5.04184587 112.674108,5.04184587 C117.337038,5.04184587 120.185031,9.04142192 119.567039,13.6668731 L109.455615,13.6668731 Z M112.674108,7.9577618 C110.81645,7.9577618 109.62061,9.33297633 109.455615,10.916444 L115.727976,10.916444 C115.563718,9.33297633 114.448902,7.9577618 112.674108,7.9577618 Z M124.807338,13.6668731 C124.971227,15.4165714 125.838184,17.0833403 128.10796,17.0833403 C129.759007,17.0833403 130.87235,16.1242602 131.285204,14.6252094 L134.668323,15.4585939 C133.595124,18.4998336 131.408213,20 128.10796,20 C123.567303,20 120.96938,16.9576447 120.96938,12.5832129 C120.96938,8.41666248 123.691785,5.04184587 128.024358,5.04184587 C132.689497,5.04184587 135.534912,9.04142192 134.915815,13.6668731 L124.807338,13.6668731 Z M128.024358,7.9577618 C126.168541,7.9577618 124.971227,9.33297633 124.807338,10.916444 L131.077488,10.916444 C130.913967,9.33297633 129.799519,7.9577618 128.024358,7.9577618 Z" id="Combined-Shape" fill="#231F20"></path>
                <path d="M6.25099944,1.82318192 L6.25099944,5.37984816 L10.9879555,5.37984816 L10.9879555,7.23441681 C10.9879555,8.34708362 10.1187892,9.25521609 9.03012169,9.29835424 L6.25099944,9.30356057 L6.25099944,13.8245133 C6.25099944,15.0625038 7.24096507,16.0654659 8.47068799,16.0654659 L10.9879555,16.0654659 L10.9879555,19.8222039 L8.47547577,19.8222039 C4.89789911,19.8222039 1.99945066,17.5221222 1.99945066,13.909302 L1.99945066,9.30356057 L0,9.30356057 L0,5.37984816 L1.99945066,5.37984816 L1.99945066,1.82318192 L6.25099944,1.82318192 Z M30.6219054,13.9933471 C30.6230102,13.9933471 30.6219054,6.03658933 30.6219054,5.37984816 L34.8841346,5.37984816 L34.8841346,13.4448231 C34.8841346,17.0580152 32.9421373,19.9858313 28.4081095,19.9858313 C23.8703988,19.9858313 21.9342941,17.0580152 21.9342941,13.4448231 L21.9342941,5.37984816 L24.1440388,5.37984816 C25.2769012,5.37984816 26.1913673,6.3039715 26.1913673,7.44824816 C26.1913673,7.44824816 26.1902624,13.9933471 26.1913673,13.9933471 C26.1913673,15.2250157 27.1787548,16.2365309 28.4081095,16.2365309 C29.6374641,16.2365309 30.6219054,15.2250157 30.6219054,13.9933471 Z M49.5343736,13.0417046 C49.5343736,13.2488421 49.5402663,13.763153 49.5343736,13.9702905 L39.8416968,13.9702905 C39.8693186,15.3031106 41.1064074,16.3971834 42.6256068,16.3971834 C43.6527698,16.3971834 44.5499262,15.9129948 45.0320188,15.1863401 L48.91675,16.2223995 C47.707283,18.4622365 45.3528001,19.9839719 42.6462311,19.9839719 C38.4922794,19.912199 35.6759598,17.155448 35.6759598,12.49504 C35.6759598,8.18159674 38.7777047,5.03437107 42.6215556,5.03437107 C47.0907643,5.03437107 49.5096981,8.55793993 49.5343736,13.0417046 Z M39.8416968,11.0287148 L45.4135681,11.0287148 C45.3988364,9.68696949 44.1573282,8.60554065 42.6256068,8.60554065 C41.1064074,8.60554065 39.8693186,9.69701027 39.8416968,11.0287148 Z M11.9797626,11.3329131 C11.9797626,8.04511656 14.6193026,5.37984816 17.8790443,5.37984816 L20.9388041,5.37984816 L20.9388041,9.30356057 L18.4465804,9.30356057 C17.2227501,9.30356057 16.2261553,10.308382 16.2261553,11.5463726 L16.2261553,19.8222039 L11.9797626,19.8222039 L11.9797626,11.3329131 Z" id="Combined-Shape" fill="#ED3124"></path>
                <path d="M27.6689453,27.0302734 C27.6689453,27.2522798 27.5919604,27.4384758 27.4379883,27.5888672 C27.2840162,27.7392586 27.0960298,27.8144531 26.8740234,27.8144531 C26.8453775,27.8144531 26.8238933,27.8072917 26.8095703,27.7929688 C26.6591789,27.8001302 26.4514987,27.8466793 26.1865234,27.9326172 C25.9215482,28.0185551 25.6476251,28.1188145 25.3647461,28.2333984 C25.0818671,28.3479823 24.8133151,28.4625645 24.559082,28.5771484 C24.304849,28.6917323 24.1097012,28.7848304 23.9736328,28.8564453 C24.367515,28.9925137 24.7416974,29.1339511 25.0961914,29.2807617 C25.4506854,29.4275723 25.7604153,29.6101877 26.0253906,29.8286133 C26.2903659,30.0470389 26.5016268,30.3155909 26.6591797,30.6342773 C26.8167326,30.9529638 26.8955078,31.3557918 26.8955078,31.8427734 C26.8955078,32.4873079 26.7791353,33.0458961 26.5463867,33.5185547 C26.3136382,33.9912133 25.9985371,34.3832992 25.6010742,34.6948242 C25.2036113,35.0063492 24.7417019,35.2390943 24.215332,35.3930664 C23.6889622,35.5470385 23.1321644,35.6240234 22.5449219,35.6240234 C22.401692,35.6240234 22.2154959,35.6132814 21.9863281,35.5917969 C21.7571603,35.5703124 21.5100925,35.5327151 21.2451172,35.4790039 C20.9801419,35.4252927 20.7151706,35.3572595 20.4501953,35.2749023 C20.18522,35.1925452 19.9453136,35.0922857 19.7304688,34.9741211 C19.5156239,34.8559564 19.34017,34.7180997 19.2041016,34.5605469 C19.0680332,34.402994 19,34.2239593 19,34.0234375 C19,33.9160151 19.0214842,33.8157557 19.0644531,33.7226562 C19.1074221,33.6295568 19.1647132,33.5454105 19.2363281,33.4702148 C19.3079431,33.3950192 19.3920894,33.3359377 19.4887695,33.2929688 C19.5854497,33.2499998 19.6874995,33.2285156 19.7949219,33.2285156 C19.9023443,33.2285156 19.999023,33.2499998 20.0849609,33.2929688 C20.1708989,33.3359377 20.2568355,33.3968095 20.3427734,33.4755859 C20.4716803,33.5830083 20.6292308,33.674316 20.8154297,33.7495117 C21.0016285,33.8247074 21.1967763,33.8855792 21.4008789,33.9321289 C21.6049815,33.9786786 21.8108714,34.0126952 22.0185547,34.0341797 C22.226238,34.0556642 22.4088534,34.0664062 22.5664062,34.0664062 C22.9316425,34.0664062 23.2807601,34.028809 23.6137695,33.9536133 C23.946779,33.8784176 24.2403959,33.7530933 24.4946289,33.5776367 C24.7488619,33.4021801 24.9529615,33.1748061 25.1069336,32.8955078 C25.2609057,32.6162095 25.3378906,32.272463 25.3378906,31.8642578 L25.3378906,31.6708984 C25.3378906,31.606445 25.3307292,31.5455732 25.3164062,31.4882812 C25.2949218,31.2949209 25.1946624,31.1355801 25.015625,31.0102539 C24.8365876,30.8849278 24.6181654,30.7721359 24.3603516,30.671875 C24.1025378,30.5716141 23.8268244,30.4749354 23.5332031,30.3818359 C23.2395819,30.2887365 22.9692395,30.1831061 22.722168,30.0649414 C22.4750964,29.9467768 22.2692066,29.8053394 22.1044922,29.640625 C21.9397778,29.4759106 21.8574219,29.2718111 21.8574219,29.0283203 C21.8574219,28.791991 21.9541006,28.5592459 22.1474609,28.3300781 C22.3408213,28.1009103 22.5914698,27.882488 22.8994141,27.6748047 C23.2073583,27.4671214 23.5511049,27.2755543 23.9306641,27.1000977 C24.3102233,26.924641 24.6844057,26.7724616 25.0532227,26.6435547 C25.4220396,26.5146478 25.7657862,26.4143884 26.0844727,26.3427734 C26.4031591,26.2711585 26.6520173,26.2353516 26.8310547,26.2353516 C27.0602225,26.2353516 27.2571606,26.3105461 27.421875,26.4609375 C27.5865894,26.6113289 27.6689453,26.8011056 27.6689453,27.0302734 Z M36.4368492,35 C36.4368492,35.2076833 36.3598643,35.3885083 36.2058922,35.5424805 C36.0519201,35.6964526 35.8639337,35.7734375 35.6419274,35.7734375 C35.4557285,35.7734375 35.2999683,35.7125657 35.1746422,35.5908203 C35.049316,35.4690749 34.9472663,35.3115244 34.8684899,35.1181641 C34.7897134,34.9248037 34.7270513,34.7081718 34.6805016,34.4682617 C34.6339519,34.2283517 34.5963546,33.9884452 34.5677086,33.7485352 C34.5390626,33.5086251 34.5175785,33.2830414 34.5032555,33.0717773 C34.4889325,32.8605133 34.471029,32.6904303 34.4495445,32.5615234 C34.0771468,32.8909522 33.7262389,33.2418601 33.3968102,33.6142578 C33.0673814,33.9866555 32.7379576,34.3554669 32.4085289,34.7207031 C32.2366531,34.906902 32.0361342,35 31.8069664,35 C31.5849601,35 31.398764,34.9230151 31.2483727,34.769043 C31.0979813,34.6150708 31.0227867,34.4270844 31.0227867,34.2050781 C31.0227867,34.1119787 31.0388998,33.9991869 31.0711266,33.8666992 C31.1033533,33.7342116 31.1427409,33.5963549 31.1892906,33.453125 C31.2358403,33.3098951 31.2823894,33.1702481 31.3289391,33.0341797 C31.3754888,32.8981113 31.4130861,32.7835291 31.441732,32.6904297 C31.3629556,32.7835291 31.2698576,32.8999016 31.1624352,33.0395508 C31.0550128,33.1791999 30.9386402,33.3260083 30.8133141,33.4799805 C30.6879879,33.6339526 30.5572926,33.7879224 30.4212242,33.9418945 C30.2851558,34.0958667 30.1472991,34.2355137 30.00765,34.3608398 C29.8680009,34.486166 29.7337249,34.5882158 29.604818,34.6669922 C29.4759111,34.7457686 29.3541675,34.7851562 29.2395836,34.7851562 C28.9746083,34.7851562 28.7615571,34.6938486 28.6004234,34.5112305 C28.4392898,34.3286124 28.3587242,34.1119804 28.3587242,33.8613281 C28.3587242,33.6608063 28.3963215,33.4531261 28.4715172,33.2382812 C28.5467129,33.0234364 28.6433916,32.8103852 28.7615563,32.5991211 C28.8797209,32.387857 29.0104162,32.1783865 29.1536461,31.9707031 C29.296876,31.7630198 29.4329423,31.562501 29.5618492,31.3691406 C29.6907561,31.1757803 29.803548,30.9931649 29.9002281,30.8212891 C29.9969083,30.6494132 30.0631511,30.4954434 30.0989586,30.359375 C30.1419276,30.1588532 30.2242835,29.9959316 30.3460289,29.8706055 C30.4677743,29.7452793 30.6396476,29.6826172 30.8616539,29.6826172 C31.0693372,29.6826172 31.2501623,29.7542311 31.4041344,29.8974609 C31.5581065,30.0406908 31.6350914,30.2161448 31.6350914,30.4238281 C31.7568368,30.3593747 31.8785804,30.3074546 32.0003258,30.2680664 C32.1220712,30.2286782 32.2509761,30.2089844 32.3870445,30.2089844 C32.7451192,30.2089844 32.9993485,30.3146148 33.1497399,30.5258789 C33.3001312,30.737143 33.3753258,30.9967433 33.3753258,31.3046875 L33.3753258,31.4335938 C33.4684252,31.3548173 33.5722653,31.2688807 33.6868492,31.1757812 C33.8014331,31.0826818 33.9213864,30.9967452 34.0467125,30.9179688 C34.1720387,30.8391923 34.3009436,30.7747398 34.4334313,30.7246094 C34.5659189,30.6744789 34.6966142,30.6494141 34.8255211,30.6494141 C35.0690119,30.6494141 35.2677404,30.726399 35.4217125,30.8803711 C35.5756846,31.0343432 35.7010089,31.2330717 35.7976891,31.4765625 C35.8943692,31.7200533 35.9677735,31.992186 36.0179039,32.2929688 C36.0680344,32.5937515 36.107422,32.8927394 36.136068,33.1899414 C36.164714,33.4871434 36.1933595,33.7646471 36.2220055,34.0224609 C36.2506515,34.2802747 36.2900391,34.4879549 36.3401695,34.6455078 L36.4046227,34.8173828 C36.4261071,34.8746748 36.4368492,34.9355466 36.4368492,35 Z M40.8268234,31.8310547 L40.8268234,31.5517578 C40.8268234,31.4801429 40.8125007,31.403158 40.7838547,31.3208008 C40.7552087,31.2384436 40.7194018,31.1686201 40.6764328,31.1113281 C40.5761719,31.1614586 40.4669608,31.2473952 40.3487961,31.3691406 C40.2306315,31.490886 40.1106782,31.6341138 39.9889328,31.7988281 C39.8671874,31.9635425 39.7454439,32.1407868 39.6236984,32.3305664 C39.501953,32.520346 39.3927419,32.7083324 39.2960617,32.8945312 C39.1993816,33.0807301 39.1152353,33.2561841 39.0436203,33.4208984 C38.9720054,33.5856128 38.9218757,33.7252598 38.8932297,33.8398438 C39.0436211,33.8040363 39.1814778,33.7324224 39.3068039,33.625 C39.4321301,33.5175776 39.5485026,33.3922533 39.655925,33.2490234 C39.7633474,33.1057936 39.8653972,32.9571948 39.9620774,32.8032227 C40.0587575,32.6492505 40.1536459,32.5042325 40.2467453,32.3681641 C40.3398447,32.2320957 40.4329428,32.1139328 40.5260422,32.0136719 C40.6191416,31.913411 40.719401,31.8525392 40.8268234,31.8310547 Z M42.2877609,31.5947266 C42.2877609,31.8024099 42.2430023,31.993977 42.1534836,32.1694336 C42.0639649,32.3448902 41.9082048,32.4541013 41.6861984,32.4970703 L41.6861984,32.6689453 C41.6861984,32.8050137 41.6718757,32.94108 41.6432297,33.0771484 C41.6145837,33.2132168 41.6002609,33.3492832 41.6002609,33.4853516 C41.6002609,33.7646498 41.6324872,33.9741204 41.6969406,34.1137695 C41.7613941,34.2534187 41.8312176,34.3697912 41.9064133,34.4628906 C41.981609,34.55599 42.0514325,34.643717 42.1158859,34.7260742 C42.1803394,34.8084314 42.2125656,34.935546 42.2125656,35.1074219 C42.2125656,35.2076828 42.1928718,35.3043615 42.1534836,35.3974609 C42.1140954,35.4905604 42.0621753,35.5747067 41.9977219,35.6499023 C41.9332684,35.725098 41.8562835,35.7859698 41.7667649,35.8325195 C41.6772462,35.8790692 41.5787771,35.9023438 41.4713547,35.9023438 C41.3424478,35.9023438 41.2171235,35.8611658 41.0953781,35.7788086 C40.9736327,35.6964514 40.8644216,35.596192 40.7677414,35.4780273 C40.6710612,35.3598627 40.5833343,35.2309577 40.5045578,35.0913086 C40.4257814,34.9516595 40.3649096,34.8281255 40.3219406,34.7207031 C40.1142573,34.9140635 39.8815122,35.0787754 39.6236984,35.2148438 C39.3658847,35.3509121 39.093752,35.4189453 38.8072922,35.4189453 C38.384764,35.4189453 38.0445982,35.2972017 37.7867844,35.0537109 C37.5289706,34.8102201 37.4000656,34.4772157 37.4000656,34.0546875 C37.4000656,33.8470042 37.4466147,33.5891942 37.5397141,33.28125 C37.6328135,32.9733058 37.7599281,32.6528337 37.9210617,32.3198242 C38.0821953,31.9868147 38.2701818,31.6538103 38.4850266,31.3208008 C38.6998714,30.9877913 38.9290358,30.6870131 39.1725266,30.418457 C39.4160174,30.149901 39.6684563,29.9332691 39.9298508,29.7685547 C40.1912453,29.6038403 40.4472649,29.5214844 40.6979172,29.5214844 C40.9628925,29.5214844 41.1938472,29.5877272 41.3907883,29.7202148 C41.5877294,29.8527025 41.7524413,30.0192047 41.8849289,30.2197266 C42.0174166,30.4202484 42.117676,30.6422514 42.1857102,30.8857422 C42.2537444,31.129233 42.2877609,31.3655587 42.2877609,31.5947266 Z M49.9970711,31.9707031 C49.9970711,32.0781255 49.9791676,32.1801753 49.9433602,32.2768555 C49.9075527,32.3735356 49.8556327,32.4612626 49.7875985,32.5400391 C49.7195643,32.6188155 49.6389987,32.6814776 49.5458992,32.7280273 C49.4527998,32.7745771 49.3525404,32.7978516 49.245118,32.7978516 C48.9873042,32.7978516 48.8046888,32.7423508 48.6972664,32.6313477 C48.589844,32.5203445 48.5164398,32.3824878 48.4770516,32.2177734 C48.4376634,32.0530591 48.4108082,31.8793954 48.3964852,31.6967773 C48.3821622,31.5141592 48.3427746,31.347657 48.2783211,31.1972656 C48.0634763,31.2688806 47.850425,31.3942048 47.639161,31.5732422 C47.4278969,31.7522795 47.2202167,31.9653308 47.0161141,32.2124023 C46.8120115,32.4594739 46.613283,32.7280259 46.4199227,33.0180664 C46.2265623,33.3081069 46.0457373,33.592772 45.8774422,33.8720703 C45.7091471,34.1513686 45.5533869,34.4163399 45.410157,34.6669922 C45.2669272,34.9176445 45.1380222,35.1324861 45.0234383,35.3115234 C44.9589849,35.4332688 44.8658868,35.5299476 44.7441414,35.6015625 C44.622396,35.6731774 44.4970718,35.7089844 44.3681649,35.7089844 C44.2607425,35.7089844 44.1586927,35.6875002 44.0620125,35.6445312 C43.9653323,35.6015623 43.8811861,35.5424808 43.8095711,35.4672852 C43.7379562,35.3920895 43.6806651,35.3079432 43.6376961,35.2148438 C43.5947271,35.1217443 43.573243,35.0214849 43.573243,34.9140625 C43.573243,34.8710935 43.6036789,34.7672534 43.6645516,34.6025391 C43.7254243,34.4378247 43.8024092,34.2426769 43.8955086,34.0170898 C43.988608,33.7915028 44.0906578,33.549806 44.201661,33.2919922 C44.3126641,33.0341784 44.4200849,32.7871106 44.5239266,32.5507812 C44.6277682,32.3144519 44.7190759,32.1067717 44.7978524,31.9277344 C44.8766288,31.748697 44.9303392,31.6233728 44.9589852,31.5517578 C45.0234386,31.4085279 45.1219077,31.2957361 45.2543953,31.2133789 C45.386883,31.1310217 45.5319011,31.0898438 45.6894539,31.0898438 L45.7861336,31.0898438 C45.8147796,31.0898438 45.8470058,31.0970051 45.8828133,31.1113281 C46.0475277,30.9537753 46.2229816,30.787273 46.4091805,30.6118164 C46.5953793,30.4363598 46.7923175,30.2734383 47.0000008,30.1230469 C47.2076841,29.9726555 47.4243161,29.8491216 47.6499031,29.7524414 C47.8754902,29.6557612 48.1064449,29.6074219 48.3427742,29.6074219 C48.6507185,29.6074219 48.9103188,29.6826164 49.1215828,29.8330078 C49.3328469,29.9833992 49.5029298,30.1749663 49.6318367,30.4077148 C49.7607436,30.6404634 49.8538417,30.8946926 49.9111336,31.1704102 C49.9684256,31.4461277 49.9970711,31.7128893 49.9970711,31.9707031 Z M60.2737641,30.4453125 C60.2737641,30.6744803 60.1824564,30.8714184 59.9998383,31.0361328 C59.8172202,31.2008472 59.5844751,31.3404942 59.3015961,31.4550781 C59.0187171,31.569662 58.7036161,31.6645504 58.3562836,31.7397461 C58.0089512,31.8149418 57.6705756,31.8740232 57.3411469,31.9169922 C57.0117182,31.9599612 56.7109399,31.990397 56.4388032,32.0083008 C56.1666664,32.0262045 55.9625669,32.0423176 55.8264985,32.0566406 C55.790691,32.14974 55.7423516,32.2768547 55.6814789,32.4379883 C55.6206062,32.5991219 55.5507827,32.7781566 55.4720063,32.9750977 C55.3932298,33.1720387 55.3144546,33.3761383 55.2356782,33.5874023 C55.1569017,33.7986664 55.0834975,34.0009756 55.0154633,34.1943359 C54.9474291,34.3876963 54.8919284,34.5631503 54.8489594,34.7207031 C54.8059904,34.878256 54.7809256,34.9999996 54.7737641,35.0859375 L54.7737641,35.2041016 C54.7737641,35.4046234 54.6949888,35.5747063 54.537436,35.7143555 C54.3798831,35.8540046 54.2008484,35.9238281 54.0003266,35.9238281 C53.7568358,35.9238281 53.5634783,35.8414722 53.4202485,35.6767578 C53.2770186,35.5120434 53.2054047,35.3151053 53.2054047,35.0859375 C53.2054047,34.9140616 53.2394213,34.6974297 53.3074555,34.4360352 C53.3754897,34.1746406 53.4560553,33.907879 53.5491547,33.6357422 C53.6422541,33.3636054 53.7389329,33.0986341 53.8391938,32.8408203 C53.9394547,32.5830065 54.0218106,32.3717456 54.0862641,32.2070312 C53.7425124,32.2285157 53.3951851,32.2517902 53.0442719,32.2768555 C52.6933587,32.3019207 52.3460314,32.3144531 52.0022797,32.3144531 C51.8948573,32.3144531 51.7910172,32.2965497 51.6907563,32.2607422 C51.5904954,32.2249347 51.500978,32.174805 51.4222016,32.1103516 C51.3434252,32.0458981 51.280763,31.9671229 51.2342133,31.8740234 C51.1876636,31.780924 51.1643891,31.6806646 51.1643891,31.5732422 C51.1643891,31.3440744 51.2342126,31.156088 51.3738617,31.0092773 C51.5135109,30.8624667 51.6979166,30.7783204 51.9270844,30.7568359 C52.399743,30.713867 52.8706042,30.6834311 53.3396821,30.6655273 C53.8087599,30.6476236 54.2796211,30.6207684 54.7522797,30.5849609 C54.8095717,30.4345696 54.9026697,30.2054052 55.0315766,29.8974609 C55.1604835,29.5895167 55.3055016,29.2421894 55.4666352,28.8554688 C55.6277688,28.4687481 55.7960614,28.060549 55.971518,27.6308594 C56.1469746,27.2011697 56.3063155,26.7965514 56.4495453,26.4169922 C56.5927752,26.037433 56.7127284,25.6990575 56.8094086,25.4018555 C56.9060888,25.1046535 56.9580088,24.8951829 56.9651703,24.7734375 C56.9794933,24.5657542 57.0636396,24.3849292 57.2176117,24.230957 C57.3715839,24.0769849 57.5524089,24 57.7600922,24 C57.9677755,24 58.1486006,24.0805656 58.3025727,24.2416992 C58.4565448,24.4028328 58.5335297,24.5872385 58.5335297,24.7949219 C58.5335297,24.9524747 58.4923517,25.1780584 58.4099946,25.4716797 C58.3276374,25.7653009 58.2220069,26.0929344 58.0931,26.4545898 C57.9641931,26.8162453 57.8209654,27.1975891 57.6634125,27.5986328 C57.5058597,27.9996765 57.3518898,28.3810203 57.2014985,28.7426758 C57.0511071,29.1043312 56.9132504,29.4319647 56.7879242,29.7255859 C56.6625981,30.0192072 56.5677097,30.2447909 56.5032563,30.4023438 C56.6393247,30.3880208 56.8183593,30.3665366 57.0403657,30.3378906 C57.262372,30.3092446 57.4915363,30.2770184 57.7278657,30.2412109 C57.964195,30.2054035 58.1879883,30.1624351 58.3992524,30.1123047 C58.6105164,30.0621742 58.773438,30.0048831 58.8880219,29.9404297 C58.9524753,29.8544918 59.038412,29.7864586 59.1458344,29.7363281 C59.2532568,29.6861977 59.3642583,29.6611328 59.4788422,29.6611328 C59.7008485,29.6611328 59.8888349,29.7363274 60.0428071,29.8867188 C60.1967792,30.0371101 60.2737641,30.2233062 60.2737641,30.4453125 Z M70.5898453,30.0302734 C70.5898453,29.7438137 70.5665708,29.477052 70.5200211,29.2299805 C70.4734714,28.9829089 70.3893251,28.7680673 70.2675797,28.5854492 C70.1458343,28.4028311 69.9829128,28.2596034 69.7788102,28.1557617 C69.5747076,28.0519201 69.3151073,28 69.0000016,28 L68.9140641,28 C68.7779957,28.1217454 68.6455101,28.2649731 68.5166032,28.4296875 C68.3876963,28.5944019 68.2641623,28.7644848 68.1459977,28.9399414 C68.027833,29.115398 67.9150412,29.2944327 67.8076188,29.4770508 C67.7001964,29.6596689 67.599937,29.8261711 67.5068375,29.9765625 C67.3564462,30.2272148 67.1272818,30.3525391 66.8193375,30.3525391 C66.6761077,30.3525391 66.543622,30.3167321 66.4218766,30.2451172 C66.3001312,30.1735022 66.2070332,30.0768235 66.1425797,29.9550781 C66.0566418,30.1770844 65.9724955,30.4116199 65.8901383,30.6586914 C65.8077811,30.905763 65.7343769,31.1564115 65.6699235,31.4106445 C65.60547,31.6648776 65.55355,31.9191068 65.5141618,32.1733398 C65.4747735,32.4275729 65.4550797,32.6728504 65.4550797,32.9091797 C65.4550797,33.1240245 65.4747735,33.3030592 65.5141618,33.4462891 C65.55355,33.5895189 65.6197928,33.7041011 65.7128922,33.7900391 C65.8059916,33.875977 65.9259449,33.9368488 66.0727555,33.9726562 C66.2195661,34.0084637 66.4039718,34.0263672 66.6259782,34.0263672 C67.1344442,34.0263672 67.6267896,33.9135753 68.1030289,33.6879883 C68.5792683,33.4624012 69.0017901,33.161623 69.3706071,32.7856445 C69.739424,32.4096661 70.0348312,31.9817732 70.2568375,31.5019531 C70.4788439,31.022133 70.5898453,30.531578 70.5898453,30.0302734 Z M72.1474625,30.4257812 C72.1474625,31.1562537 71.9970734,31.8580696 71.6962907,32.53125 C71.3955079,33.2044304 70.9908896,33.7988255 70.4824235,34.3144531 C69.9739574,34.8300807 69.3867237,35.2418604 68.7207047,35.5498047 C68.0546858,35.8577489 67.3564506,36.0117188 66.6259782,36.0117188 C65.7522759,36.0117188 65.0791055,35.7825544 64.6064469,35.3242188 C64.1337883,34.8658831 63.8974625,34.1998742 63.8974625,33.3261719 C63.8974625,33.0325506 63.9458019,32.6458357 64.0424821,32.1660156 C64.1391622,31.6861955 64.2734382,31.1759467 64.4453141,30.6352539 C64.61719,30.0945611 64.8212895,29.5485054 65.0576188,28.9970703 C65.2939481,28.4456353 65.551758,27.9479189 65.8310563,27.5039062 C66.1103546,27.0598936 66.4075521,26.6982436 66.7226578,26.4189453 C67.0377636,26.139647 67.3564453,26 67.6787125,26 C67.9078803,26 68.0976571,26.0805656 68.2480485,26.2416992 C68.3984399,26.4028328 68.4736344,26.5872385 68.4736344,26.7949219 C68.4736344,26.8164064 68.4700537,26.8343098 68.4628922,26.8486328 C68.4557307,26.8629558 68.45215,26.8808593 68.45215,26.9023438 C68.538088,26.8808593 68.6293956,26.8683268 68.7260758,26.8647461 C68.822756,26.8611653 68.9140637,26.859375 69.0000016,26.859375 C69.5442752,26.859375 70.0151363,26.9506827 70.4125993,27.1333008 C70.8100622,27.3159189 71.1376956,27.5683578 71.3955094,27.890625 C71.6533232,28.2128922 71.8430999,28.5906554 71.9648453,29.0239258 C72.0865908,29.4571962 72.1474625,29.9244767 72.1474625,30.4257812 Z M78.5032571,31.9707031 C78.5032571,32.0781255 78.4853536,32.1801753 78.4495461,32.2768555 C78.4137387,32.3735356 78.3618186,32.4612626 78.2937844,32.5400391 C78.2257502,32.6188155 78.1451846,32.6814776 78.0520852,32.7280273 C77.9589858,32.7745771 77.8587264,32.7978516 77.7513039,32.7978516 C77.4934902,32.7978516 77.3108748,32.7423508 77.2034524,32.6313477 C77.09603,32.5203445 77.0226258,32.3824878 76.9832375,32.2177734 C76.9438493,32.0530591 76.9169941,31.8793954 76.9026711,31.6967773 C76.8883481,31.5141592 76.8489605,31.347657 76.7845071,31.1972656 C76.5696623,31.2688806 76.356611,31.3942048 76.1453469,31.5732422 C75.9340828,31.7522795 75.7264026,31.9653308 75.5223,32.2124023 C75.3181975,32.4594739 75.119469,32.7280259 74.9261086,33.0180664 C74.7327483,33.3081069 74.5519233,33.592772 74.3836282,33.8720703 C74.2153331,34.1513686 74.0595729,34.4163399 73.916343,34.6669922 C73.7731131,34.9176445 73.6442082,35.1324861 73.5296243,35.3115234 C73.4651708,35.4332688 73.3720728,35.5299476 73.2503274,35.6015625 C73.128582,35.6731774 73.0032577,35.7089844 72.8743508,35.7089844 C72.7669284,35.7089844 72.6648787,35.6875002 72.5681985,35.6445312 C72.4715183,35.6015623 72.387372,35.5424808 72.3157571,35.4672852 C72.2441421,35.3920895 72.186851,35.3079432 72.1438821,35.2148438 C72.1009131,35.1217443 72.0794289,35.0214849 72.0794289,34.9140625 C72.0794289,34.8710935 72.1098648,34.7672534 72.1707375,34.6025391 C72.2316102,34.4378247 72.3085952,34.2426769 72.4016946,34.0170898 C72.494794,33.7915028 72.5968438,33.549806 72.7078469,33.2919922 C72.8188501,33.0341784 72.9262709,32.7871106 73.0301125,32.5507812 C73.1339542,32.3144519 73.2252619,32.1067717 73.3040383,31.9277344 C73.3828148,31.748697 73.4365252,31.6233728 73.4651711,31.5517578 C73.5296246,31.4085279 73.6280937,31.2957361 73.7605813,31.2133789 C73.8930689,31.1310217 74.038087,31.0898438 74.1956399,31.0898438 L74.2923196,31.0898438 C74.3209656,31.0898438 74.3531918,31.0970051 74.3889993,31.1113281 C74.5537136,30.9537753 74.7291676,30.787273 74.9153664,30.6118164 C75.1015653,30.4363598 75.2985034,30.2734383 75.5061868,30.1230469 C75.7138701,29.9726555 75.930502,29.8491216 76.1560891,29.7524414 C76.3816762,29.6557612 76.6126309,29.6074219 76.8489602,29.6074219 C77.1569044,29.6074219 77.4165047,29.6826164 77.6277688,29.8330078 C77.8390329,29.9833992 78.0091158,30.1749663 78.1380227,30.4077148 C78.2669296,30.6404634 78.3600276,30.8946926 78.4173196,31.1704102 C78.4746115,31.4461277 78.5032571,31.7128893 78.5032571,31.9707031 Z M82.5065126,32.4541016 L82.3883485,32.4541016 C82.1376962,32.5257165 81.9139029,32.6295566 81.7169618,32.765625 C81.5200207,32.9016934 81.3517281,33.0502922 81.212079,33.2114258 C81.0724298,33.3725594 80.9578476,33.540852 80.868329,33.7163086 C80.7788103,33.8917652 80.7161481,34.0546867 80.6803407,34.2050781 L80.7447938,34.2050781 C80.8951852,34.2050781 81.0473646,34.142416 81.2013368,34.0170898 C81.3553089,33.8917637 81.5074884,33.7395842 81.6578797,33.5605469 C81.8082711,33.3815095 81.9550795,33.1899424 82.0983094,32.9858398 C82.2415393,32.7817373 82.3776057,32.6044929 82.5065126,32.4541016 Z M86.2447938,28.3828125 C86.2447938,28.7050797 86.1928737,29.0380842 86.0890321,29.3818359 C85.9851904,29.7255877 85.8527048,30.0639632 85.6915711,30.3969727 C85.5304375,30.7299821 85.3531932,31.0522445 85.1598329,31.3637695 C84.9664725,31.6752945 84.7766958,31.956379 84.5904969,32.2070312 C84.5546895,32.4147146 84.5278343,32.6277658 84.5099305,32.8461914 C84.4920268,33.064617 84.4830751,33.2776682 84.4830751,33.4853516 C84.4830751,33.7145194 84.5063496,33.9150382 84.5528993,34.0869141 C84.599449,34.2587899 84.6495787,34.4109694 84.7032899,34.543457 C84.7570011,34.6759447 84.8071308,34.7941076 84.8536805,34.8979492 C84.9002302,35.0017909 84.9235047,35.1038406 84.9235047,35.2041016 C84.9235047,35.4046234 84.8536812,35.5854484 84.7140321,35.746582 C84.5743829,35.9077156 84.4007193,35.9882812 84.193036,35.9882812 C83.9996756,35.9882812 83.8331734,35.9166674 83.6935243,35.7734375 C83.5538751,35.6302076 83.4410833,35.4583343 83.3551454,35.2578125 C83.2692074,35.0572907 83.204755,34.8478201 83.161786,34.6293945 C83.118817,34.410969 83.0901715,34.2265633 83.0758485,34.0761719 C82.9111341,34.2480477 82.7124056,34.4485666 82.4796571,34.6777344 C82.2469085,34.9069022 81.99626,35.1235341 81.727704,35.3276367 C81.4591479,35.5317393 81.1852249,35.7054029 80.9059266,35.8486328 C80.6266283,35.9918627 80.3580763,36.0634766 80.1002626,36.0634766 C79.9283867,36.0634766 79.7708362,36.0276696 79.6276063,35.9560547 C79.4843764,35.8844397 79.3644232,35.7895514 79.267743,35.6713867 C79.1710628,35.5532221 79.0958683,35.4171557 79.0421571,35.2631836 C78.9884459,35.1092115 78.9615907,34.9498706 78.9615907,34.7851562 C78.9615907,34.5846344 79.0170914,34.3483087 79.1280946,34.0761719 C79.2390977,33.8040351 79.3876965,33.5229507 79.5738954,33.2329102 C79.7600942,32.9428696 79.9713551,32.6546238 80.2076844,32.3681641 C80.4440137,32.0817043 80.6892912,31.8256847 80.9435243,31.6000977 C81.1977573,31.3745106 81.4501962,31.1918952 81.7008485,31.0522461 C81.9515008,30.912597 82.1806652,30.8427734 82.3883485,30.8427734 C82.5888703,30.8427734 82.767905,30.9072259 82.9254579,31.0361328 C83.0830107,31.1650397 83.1832701,31.3297516 83.2262391,31.5302734 C83.2548851,31.3870436 83.2978534,31.177573 83.3551454,30.9018555 C83.4124373,30.6261379 83.4876319,30.3235694 83.5807313,29.9941406 C83.6738307,29.6647119 83.7812515,29.3299171 83.9029969,28.9897461 C84.0247423,28.6495751 84.1590183,28.3398451 84.305829,28.0605469 C84.4526396,27.7812486 84.6155611,27.5520842 84.7945985,27.3730469 C84.9736358,27.1940095 85.1634126,27.1044922 85.3639344,27.1044922 C85.5358103,27.1044922 85.6772477,27.1438798 85.7882508,27.2226562 C85.899254,27.3014327 85.9887713,27.4034824 86.0568055,27.5288086 C86.1248397,27.6541347 86.1731791,27.7919914 86.2018251,27.9423828 C86.230471,28.0927742 86.2447938,28.2395826 86.2447938,28.3828125 Z M90.3017602,29.5 L90.2802758,29.5 C90.1084,29.5 89.9293653,29.5250649 89.7431665,29.5751953 C89.5569676,29.6253258 89.3779329,29.6915686 89.2060571,29.7739258 C89.0341812,29.856283 88.8748404,29.9529617 88.7280297,30.0639648 C88.5812191,30.174968 88.4541045,30.2949212 88.3466821,30.4238281 C88.4970735,30.3951821 88.6653661,30.3557945 88.8515649,30.3056641 C89.0377637,30.2555336 89.2203791,30.1928715 89.3994165,30.1176758 C89.5784538,30.0424801 89.7467464,29.9529628 89.9042993,29.8491211 C90.0618521,29.7452794 90.1943378,29.6289069 90.3017602,29.5 Z M91.8486352,29.7998047 C91.8486352,30.2581403 91.7233109,30.6573876 91.4726587,30.9975586 C91.2220064,31.3377296 90.905115,31.6206043 90.5219751,31.8461914 C90.1388351,32.0717785 89.725265,32.2472324 89.2812524,32.3725586 C88.8372398,32.4978847 88.4218793,32.5784503 88.0351587,32.6142578 C88.0924506,32.8147796 88.1658548,33.0135081 88.2553735,33.2104492 C88.3448922,33.4073903 88.4541033,33.5846346 88.5830102,33.7421875 C88.7119171,33.8997404 88.8640966,34.026855 89.0395532,34.1235352 C89.2150098,34.2202153 89.417319,34.2685547 89.6464868,34.2685547 C89.6894557,34.2685547 89.7360048,34.264974 89.7861352,34.2578125 C89.8362657,34.250651 89.8828147,34.2399089 89.9257837,34.2255859 C89.9544296,34.2255859 89.9830752,34.2220052 90.0117212,34.2148438 C90.0403671,34.2076823 90.065432,34.2041016 90.0869165,34.2041016 C90.3089228,34.2041016 90.4879574,34.2864575 90.6240258,34.4511719 C90.7600942,34.6158862 90.8281274,34.7985016 90.8281274,34.9990234 C90.8281274,35.1708993 90.7941108,35.3105463 90.7260766,35.4179688 C90.6580424,35.5253912 90.5667347,35.6095375 90.4521508,35.6704102 C90.3375669,35.7312829 90.2104523,35.7724608 90.0708032,35.7939453 C89.931154,35.8154298 89.7897167,35.8261719 89.6464868,35.8261719 C89.1595052,35.8261719 88.7208702,35.71338 88.3305688,35.487793 C87.9402674,35.2622059 87.6090532,34.9667987 87.3369165,34.6015625 C87.0647797,34.2363263 86.8570995,33.8281273 86.7138696,33.3769531 C86.5706397,32.925779 86.4990258,32.4746116 86.4990258,32.0234375 C86.4990258,31.5364559 86.6046563,31.0781271 86.8159204,30.6484375 C87.0271844,30.2187479 87.3082689,29.8445654 87.6591821,29.5258789 C88.0100953,29.2071924 88.411133,28.9565439 88.8623071,28.7739258 C89.3134812,28.5913077 89.7789714,28.5 90.2587915,28.5 C90.4664748,28.5 90.6652033,28.5250649 90.8549829,28.5751953 C91.0447625,28.6253258 91.2130551,28.704101 91.3598657,28.8115234 C91.5066763,28.9189458 91.6248392,29.0532219 91.7143579,29.2143555 C91.8038765,29.3754891 91.8486352,29.5706369 91.8486352,29.7998047 Z M98.9886094,31.9707031 C98.9886094,32.0781255 98.970706,32.1801753 98.9348985,32.2768555 C98.899091,32.3735356 98.847171,32.4612626 98.7791368,32.5400391 C98.7111026,32.6188155 98.630537,32.6814776 98.5374376,32.7280273 C98.4443381,32.7745771 98.3440787,32.7978516 98.2366563,32.7978516 C97.9788425,32.7978516 97.7962272,32.7423508 97.6888047,32.6313477 C97.5813823,32.5203445 97.5079781,32.3824878 97.4685899,32.2177734 C97.4292017,32.0530591 97.4023465,31.8793954 97.3880235,31.6967773 C97.3737005,31.5141592 97.3343129,31.347657 97.2698594,31.1972656 C97.0550146,31.2688806 96.8419634,31.3942048 96.6306993,31.5732422 C96.4194352,31.7522795 96.211755,31.9653308 96.0076524,32.2124023 C95.8035498,32.4594739 95.6048213,32.7280259 95.411461,33.0180664 C95.2181007,33.3081069 95.0372756,33.592772 94.8689805,33.8720703 C94.7006854,34.1513686 94.5449253,34.4163399 94.4016954,34.6669922 C94.2584655,34.9176445 94.1295605,35.1324861 94.0149766,35.3115234 C93.9505232,35.4332688 93.8574252,35.5299476 93.7356797,35.6015625 C93.6139343,35.6731774 93.4886101,35.7089844 93.3597032,35.7089844 C93.2522808,35.7089844 93.150231,35.6875002 93.0535508,35.6445312 C92.9568707,35.6015623 92.8727244,35.5424808 92.8011094,35.4672852 C92.7294945,35.3920895 92.6722034,35.3079432 92.6292344,35.2148438 C92.5862655,35.1217443 92.5647813,35.0214849 92.5647813,34.9140625 C92.5647813,34.8710935 92.5952172,34.7672534 92.6560899,34.6025391 C92.7169626,34.4378247 92.7939475,34.2426769 92.8870469,34.0170898 C92.9801464,33.7915028 93.0821961,33.549806 93.1931993,33.2919922 C93.3042024,33.0341784 93.4116232,32.7871106 93.5154649,32.5507812 C93.6193066,32.3144519 93.7106143,32.1067717 93.7893907,31.9277344 C93.8681671,31.748697 93.9218775,31.6233728 93.9505235,31.5517578 C94.0149769,31.4085279 94.113446,31.2957361 94.2459337,31.2133789 C94.3784213,31.1310217 94.5234394,31.0898438 94.6809922,31.0898438 L94.7776719,31.0898438 C94.8063179,31.0898438 94.8385442,31.0970051 94.8743516,31.1113281 C95.039066,30.9537753 95.21452,30.787273 95.4007188,30.6118164 C95.5869177,30.4363598 95.7838558,30.2734383 95.9915391,30.1230469 C96.1992225,29.9726555 96.4158544,29.8491216 96.6414415,29.7524414 C96.8670285,29.6557612 97.0979833,29.6074219 97.3343126,29.6074219 C97.6422568,29.6074219 97.9018571,29.6826164 98.1131212,29.8330078 C98.3243852,29.9833992 98.4944682,30.1749663 98.6233751,30.4077148 C98.752282,30.6404634 98.84538,30.8946926 98.9026719,31.1704102 C98.9599639,31.4461277 98.9886094,31.7128893 98.9886094,31.9707031 Z M102.454756,30.9287109 C102.454756,31.2223322 102.409997,31.510578 102.320478,31.793457 C102.23096,32.076336 102.134281,32.3592108 102.030439,32.6420898 C101.926597,32.9249689 101.829919,33.2078436 101.7404,33.4907227 C101.650881,33.7736017 101.606123,34.0654282 101.606123,34.3662109 C101.606123,34.4736333 101.584639,34.5756831 101.54167,34.6723633 C101.498701,34.7690435 101.439619,34.8531897 101.364424,34.9248047 C101.289228,34.9964196 101.205082,35.0537107 101.111982,35.0966797 C101.018883,35.1396487 100.918623,35.1611328 100.811201,35.1611328 C100.546226,35.1611328 100.343916,35.0644541 100.204267,34.8710938 C100.064618,34.6777334 99.9947946,34.4557304 99.9947946,34.2050781 C99.9947946,33.9186184 100.035973,33.6375339 100.11833,33.3618164 C100.200687,33.0860989 100.295575,32.8121758 100.402998,32.5400391 C100.51042,32.2679023 100.61247,31.9975599 100.70915,31.7290039 C100.80583,31.4604479 100.868492,31.1865248 100.897138,30.9072266 C100.911461,30.6995432 100.992027,30.5205086 101.138838,30.3701172 C101.285648,30.2197258 101.462893,30.1445312 101.670576,30.1445312 C101.892582,30.1445312 102.078778,30.2197258 102.22917,30.3701172 C102.379561,30.5205086 102.454756,30.7067046 102.454756,30.9287109 Z M104.323896,28.8876953 C104.323896,29.0237637 104.29167,29.1526687 104.227216,29.2744141 C104.162763,29.3961595 104.078617,29.5017899 103.974775,29.5913086 C103.870933,29.6808273 103.756351,29.7506508 103.631025,29.8007812 C103.505699,29.8509117 103.378584,29.8759766 103.249677,29.8759766 C103.099286,29.8759766 102.945316,29.8401696 102.787763,29.7685547 C102.63021,29.6969397 102.486983,29.6038417 102.358076,29.4892578 C102.229169,29.3746739 102.121748,29.2439786 102.03581,29.097168 C101.949872,28.9503573 101.906904,28.7981779 101.906904,28.640625 C101.906904,28.4329417 101.983889,28.253907 102.137861,28.1035156 C102.291833,27.9531242 102.472658,27.8779297 102.680341,27.8779297 C102.923832,27.8779297 103.127932,27.9710277 103.292646,28.1572266 C103.335615,28.1357421 103.380374,28.1232097 103.426924,28.1196289 C103.473473,28.1160482 103.518232,28.1142578 103.561201,28.1142578 C103.768884,28.1142578 103.947919,28.1912427 104.09831,28.3452148 C104.248702,28.499187 104.323896,28.680012 104.323896,28.8876953 Z M109.691409,31.9277344 C109.691409,32.2213556 109.650231,32.5275049 109.567874,32.8461914 C109.485517,33.1648779 109.381677,33.4835596 109.256351,33.8022461 C109.131025,34.1209326 108.996749,34.4324529 108.853519,34.7368164 C108.710289,35.0411799 108.577803,35.3294257 108.456058,35.6015625 C108.413089,35.7662769 108.323572,35.8987625 108.187503,35.9990234 C108.051435,36.0992844 107.893884,36.1494141 107.714847,36.1494141 C107.507164,36.1494141 107.326339,36.0724292 107.172366,35.918457 C107.018394,35.7644849 106.941409,35.5836599 106.941409,35.3759766 C106.941409,35.2685542 106.99333,35.0859388 107.097171,34.828125 C107.201013,34.5703112 107.320966,34.2856461 107.457034,33.9741211 C107.593103,33.6625961 107.722008,33.3510758 107.843753,33.0395508 C107.965499,32.7280258 108.047855,32.4648448 108.090824,32.25 C107.439128,32.5865902 106.814297,32.9912086 106.216312,33.4638672 C105.618327,33.9365258 105.032884,34.4055966 104.459964,34.8710938 C104.309573,34.9856777 104.14128,35.0429688 103.955081,35.0429688 C103.747398,35.0429688 103.566573,34.9677742 103.412601,34.8173828 C103.258629,34.6669914 103.181644,34.4879568 103.181644,34.2802734 C103.181644,34.2373045 103.224612,34.1209319 103.31055,33.9311523 C103.396488,33.7413727 103.505699,33.5139987 103.638187,33.2490234 C103.770674,32.9840482 103.915693,32.7011734 104.073245,32.4003906 C104.230798,32.0996079 104.381187,31.8167331 104.524417,31.5517578 C104.667647,31.2867825 104.796552,31.0558278 104.911136,30.8588867 C105.02572,30.6619456 105.100914,30.5384117 105.136722,30.4882812 C105.301436,30.3020824 105.505536,30.2089844 105.749027,30.2089844 C105.971033,30.2089844 106.159019,30.2841789 106.312991,30.4345703 C106.466964,30.5849617 106.543949,30.7639964 106.543949,30.9716797 C106.543949,31.0647791 106.529626,31.1489254 106.50098,31.2241211 C106.472334,31.2993168 106.436527,31.3691403 106.393558,31.4335938 C106.529626,31.3476558 106.685386,31.2509771 106.860843,31.1435547 C107.0363,31.0361323 107.217125,30.9358729 107.403324,30.8427734 C107.589522,30.749674 107.779299,30.6708988 107.972659,30.6064453 C108.16602,30.5419919 108.352216,30.5097656 108.531253,30.5097656 C108.731775,30.5097656 108.905439,30.5491533 109.052249,30.6279297 C109.19906,30.7067061 109.319013,30.8105462 109.412113,30.9394531 C109.505212,31.06836 109.575036,31.2187491 109.621585,31.390625 C109.668135,31.5625009 109.691409,31.7415355 109.691409,31.9277344 Z M115.671227,29.390625 C115.671227,29.5911468 115.601404,29.7701815 115.461755,29.9277344 C115.322106,30.0852872 115.148442,30.1640625 114.940759,30.1640625 C114.80469,30.1640625 114.675785,30.1282556 114.55404,30.0566406 L114.478845,30.0566406 C114.478845,30.0423176 114.475264,30.0351562 114.468102,30.0351562 L114.45736,30.0351562 C114.285484,30.0351562 114.079595,30.096028 113.839684,30.2177734 C113.599774,30.3395188 113.361658,30.489908 113.125329,30.6689453 C112.889,30.8479827 112.675948,31.0377594 112.486169,31.2382812 C112.296389,31.4388031 112.169275,31.6178378 112.104821,31.7753906 C112.14779,31.8183596 112.201501,31.8398438 112.265954,31.8398438 C112.387699,31.8398438 112.518395,31.784343 112.658044,31.6733398 C112.797693,31.5623367 112.942711,31.4405931 113.093102,31.3081055 C113.243494,31.1756178 113.397464,31.0538743 113.555016,30.9428711 C113.712569,30.8318679 113.873701,30.7763672 114.038415,30.7763672 C114.188806,30.7763672 114.315921,30.8121741 114.419763,30.8837891 C114.523604,30.955404 114.607751,31.0449213 114.672204,31.1523438 C114.736657,31.2597662 114.783206,31.3797194 114.811852,31.512207 C114.840498,31.6446947 114.854821,31.77539 114.854821,31.9042969 C114.854821,32.2408871 114.806482,32.6490861 114.709802,33.1289062 C114.613121,33.6087264 114.477055,34.1064427 114.301599,34.6220703 C114.126142,35.1376979 113.916671,35.649737 113.673181,36.1582031 C113.42969,36.6666692 113.159347,37.1214173 112.862145,37.5224609 C112.564943,37.9235046 112.244471,38.2493477 111.90072,38.5 C111.556968,38.7506523 111.198899,38.8759766 110.826501,38.8759766 C110.590172,38.8759766 110.353846,38.8544924 110.117516,38.8115234 C109.881187,38.7685545 109.669926,38.6915696 109.483727,38.5805664 C109.297529,38.4695632 109.145349,38.3209645 109.027184,38.1347656 C108.90902,37.9485668 108.849938,37.712241 108.849938,37.4257812 C108.849938,37.2825514 108.878584,37.0981457 108.935876,36.8725586 C108.993168,36.6469715 109.073733,36.4267589 109.177575,36.2119141 C109.281417,35.9970692 109.404951,35.8126635 109.548181,35.6586914 C109.69141,35.5047193 109.848961,35.4277344 110.020837,35.4277344 C110.242843,35.4277344 110.421878,35.5083 110.557946,35.6694336 C110.694015,35.8305672 110.762048,36.0113922 110.762048,36.2119141 C110.762048,36.3909514 110.710128,36.5717764 110.606286,36.7543945 C110.502444,36.9370126 110.414717,37.1106763 110.343102,37.2753906 C110.421879,37.2968751 110.502444,37.3094075 110.584802,37.3129883 C110.667159,37.316569 110.747724,37.3183594 110.826501,37.3183594 C110.998377,37.3183594 111.17204,37.2342131 111.347497,37.065918 C111.522954,36.8976229 111.691246,36.6809909 111.85238,36.4160156 C112.013513,36.1510403 112.167483,35.8556331 112.314294,35.5297852 C112.461104,35.2039372 112.59359,34.8870458 112.711755,34.5791016 C112.829919,34.2711573 112.930179,33.9882825 113.012536,33.7304688 C113.094893,33.472655 113.153975,33.2757168 113.189782,33.1396484 C113.032229,33.2184249 112.871098,33.281087 112.706384,33.3276367 C112.541669,33.3741864 112.376957,33.3974609 112.212243,33.3974609 C112.00456,33.3974609 111.805831,33.3544926 111.616052,33.2685547 C111.426272,33.1826168 111.257979,33.0662442 111.111169,32.9194336 C110.964358,32.772623 110.847986,32.6043304 110.762048,32.4145508 C110.67611,32.2247712 110.633141,32.0260427 110.633141,31.8183594 C110.633141,31.5677071 110.695804,31.3098972 110.82113,31.0449219 C110.946456,30.7799466 111.114749,30.5221367 111.326013,30.2714844 C111.537277,30.0208321 111.777183,29.7862967 112.045739,29.5678711 C112.314295,29.3494455 112.591799,29.1578784 112.878259,28.9931641 C113.164718,28.8284497 113.449384,28.6995447 113.732263,28.6064453 C114.015142,28.5133459 114.271161,28.4667969 114.500329,28.4667969 C114.643559,28.4667969 114.783206,28.4847003 114.919274,28.5205078 C115.055343,28.5563153 115.180667,28.611816 115.295251,28.6870117 C115.409835,28.7622074 115.501142,28.8588861 115.569177,28.9770508 C115.637211,29.0952154 115.671227,29.2330721 115.671227,29.390625 Z" id="Smart-Ordering" fill="#9B9B9B"></path>
            </g>
        </g>
    </g>
</svg>