<?xml version="1.0" encoding="UTF-8"?>
<svg width="56px" height="56px" viewBox="0 0 56 56" version="1.1" xmlns="http://www.w3.org/2000/svg" xmlns:xlink="http://www.w3.org/1999/xlink">
    <!-- Generator: sketchtool 51 (57462) - http://www.bohemiancoding.com/sketch -->
    <title>474C78E8-220A-44AD-A188-EA6E6F1B5C59</title>
    <desc>Created with sketchtool.</desc>
    <defs>
        <polygon id="path-1" points="0.0356336286 16.1834862 15.2764624 16.1834862 15.2764624 0.0725174312 0.0356336286 0.0725174312"></polygon>
        <polygon id="path-3" points="19.6154894 0.150044037 19.6154894 19.2660165 0.134777305 19.2660165 0.134777305 0.150044037 19.6154894 0.150044037"></polygon>
        <polygon id="path-5" points="3.64710538 0.173035484 3.64710538 5.87096774 0.110338065 5.87096774 0.110338065 0.173035484 3.64710538 0.173035484"></polygon>
    </defs>
    <g id="Symbols" stroke="none" stroke-width="1" fill="none" fill-rule="evenodd">
        <g id="Icn-Color/Tmn">
            <g id="-g-Group" transform="translate(4.000000, 4.000000)">
                <rect id="Rectangle" fill="#F4F5F7" x="0.666666667" y="0.666666667" width="46.6666667" height="46.6666667" rx="9.91666667"></rect>
                <g id="Page-1" transform="translate(5.333333, 10.000000)">
                    <g id="Group-3" transform="translate(0.000000, 0.057220)" fill="#EC1D24">
                        <path d="M11.3027064,1.07506514 C11.1404652,0.556422936 10.5764936,0.135459633 10.0409191,0.135459633 L8.91218156,0.135459633 L0.720096454,0.135459633 C0.184720567,0.135459633 -0.117719149,0.556422936 0.0431319149,1.07506514 L5.09008227,17.5178725 C5.25113191,18.0367073 5.81569929,18.4584413 6.35107518,18.4584413 L11.9484936,18.4584413 L14.0038128,18.4584413 C14.539983,18.4584413 15.1418837,18.0367073 15.3497986,17.5178725 L15.9151603,16.1041294 L11.3027064,1.07506514 Z" id="Fill-1"></path>
                    </g>
                    <path d="M22.1080454,4.90779633 L12.9304,4.90779633 L12.9099461,4.7785211 C12.3018894,4.7785211 12.0359887,5.17135596 11.8477333,5.69019083 L7.55281135,17.5727229 C7.55181844,17.5742642 7.55102411,17.5765761 7.55102411,17.5790807 C7.35879716,18.095411 6.77496738,18.5125211 6.24237163,18.5125211 L11.1987688,18.5125211 L17.1300028,18.5125211 C17.6653787,18.5125211 18.2523858,18.0909798 18.4412369,17.5727229 L22.7357617,5.69019083 C22.9242156,5.17135596 22.6432227,4.90779633 22.1080454,4.90779633" id="Fill-4" fill="#9D0B0F"></path>
                    <g id="Group-8" transform="translate(12.113475, 4.681073)">
                        <mask id="mask-2" fill="white">
                            <use xlink:href="#path-1"></use>
                        </mask>
                        <g id="Clip-7"></g>
                        <path d="M11.3383915,1.01212294 C11.1765475,0.492902752 10.6125759,0.0725174312 10.0766043,0.0725174312 L8.94826383,0.0725174312 L0.75578156,0.0725174312 C0.2212,0.0725174312 -0.0822326241,0.492902752 0.0788170213,1.01212294 L4.45158298,15.2429945 C4.61302979,15.7624073 5.17739858,16.1835633 5.71297305,16.1835633 L11.3093986,16.1835633 L13.3655121,16.1835633 C13.9014837,16.1835633 14.5029872,15.7624073 14.7112993,15.2429945 L15.2764624,13.8292514 L11.3383915,1.01212294 Z" id="Fill-6" fill="#FFCA05" mask="url(#mask-2)"></path>
                    </g>
                    <g id="Group-11" transform="translate(17.673759, 1.598505)">
                        <mask id="mask-4" fill="white">
                            <use xlink:href="#path-3"></use>
                        </mask>
                        <g id="Clip-10"></g>
                        <path d="M18.9521674,0.150044037 L15.1818979,0.150044037 L9.06101844,0.150044037 C8.52603972,0.150044037 7.92394043,0.570622018 7.71542979,1.09003486 L1.47937305,18.3254477 C1.4777844,18.3293009 1.47619574,18.3323835 1.47540142,18.3368147 C1.26311773,18.8510257 0.666975887,19.2660165 0.134777305,19.2660165 L2.07194043,19.2660165 L8.19301844,19.2660165 L9.90737305,19.2660165 L11.9628908,19.2660165 C12.4980681,19.2660165 13.1007631,18.8450532 13.3078837,18.3254477 L19.5447348,1.09003486 C19.7526496,0.570622018 19.4869475,0.150044037 18.9521674,0.150044037" id="Fill-9" fill="#F4811F" mask="url(#mask-4)"></path>
                    </g>
                </g>
                <g id="Page-1" transform="translate(5.333333, 33.333333)">
                    <path d="M5.95319742,1.06309677 L5.93127914,1.06309677 L5.76821677,1.06309677 C4.7171028,1.06309677 3.86518022,1.86041935 3.86518022,2.84990323 L3.86518022,5.39225806 L5.23543398,5.39225806 L5.23543398,2.912 C5.23543398,2.53783871 5.55601892,2.23932258 5.95319742,2.23932258 L6.75622538,2.23932258 L6.75622538,1.06309677 L6.2403028,1.06309677 L5.95319742,1.06309677 Z M12.8545652,2.75845161 C12.8673308,2.35741935 13.2618598,2.03293548 13.7520103,2.03293548 C14.2479415,2.03293548 14.6463243,2.35312903 14.653791,2.75845161 L12.8545652,2.75845161 Z M15.9830985,3.35751613 C15.9727415,2.01622581 15.1962082,0.961935484 13.7520103,0.961935484 C12.5115802,0.961935484 11.5112877,1.90151613 11.5112877,3.19470968 C11.5112877,4.59312903 12.4198125,5.418 13.762849,5.44283871 C14.6323544,5.44283871 15.3941953,4.98332258 15.7839071,4.31132258 L14.5295071,4.00309677 C14.3775243,4.21806452 14.086806,4.36732258 13.7520103,4.36732258 C13.2618598,4.36732258 12.8673308,4.03764516 12.8545652,3.63841935 L15.9830985,3.63841935 C15.9847845,3.57609677 15.9830985,3.42322581 15.9830985,3.35751613 Z M9.88331355,3.64474194 C9.88331355,4.01280645 9.5639329,4.31651613 9.16458667,4.31651613 C8.76861247,4.31651613 8.45260387,4.01280645 8.45260387,3.64474194 L8.45260387,1.68270968 C8.45260387,1.34129032 8.15851355,1.06309677 7.78927484,1.06309677 L7.07488344,1.06309677 L7.07488344,3.47832258 C7.07488344,4.56377419 7.70208344,5.44283871 9.16458667,5.44283871 C10.6307028,5.44283871 11.2564576,4.56377419 11.2564576,3.47832258 L11.2564576,1.06309677 L9.88331355,1.06309677 L9.88331355,3.64474194 Z M2.0163372,-3.55271368e-15 L0.646324301,-3.55271368e-15 L0.646324301,1.06309677 L9.6344086e-05,1.06309677 L9.6344086e-05,2.23932258 L0.646324301,2.23932258 L0.646324301,3.61967742 C0.646324301,4.70241935 1.57917591,5.39225806 2.73410065,5.39225806 L3.54339097,5.39225806 L3.54339097,4.26525806 L2.7307286,4.26525806 C2.33571785,4.26525806 2.0163372,3.96470968 2.0163372,3.59574194 L2.0163372,2.23932258 L2.91426409,2.23751613 C3.26519742,2.22329032 3.54339097,1.9566129 3.54339097,1.61970968 L3.54339097,1.06309677 L2.0163372,1.06309677 L2.0163372,-3.55271368e-15 Z" id="Fill-1" fill="#E42F34"></path>
                    <path d="M24.5688017,1.17423871 C24.0425222,1.17423871 23.5791071,1.40614194 23.2462383,1.77714194 C22.9085523,2.15310968 22.6999673,2.66049677 22.6999673,3.23946452 C22.6999673,3.79923871 22.9085523,4.32130323 23.2462383,4.69275484 C23.5791071,5.06352903 24.0425222,5.29452903 24.5688017,5.29452903 C25.0808705,5.29452903 25.5483802,5.06352903 25.8841394,4.69275484 C26.2244748,4.32130323 26.4287243,3.79923871 26.4287243,3.23946452 C26.4287243,2.67043226 26.2244748,2.15310968 25.8841394,1.77714194 C25.5483802,1.40614194 25.0808705,1.17423871 24.5688017,1.17423871 M25.2800619,4.07223871 C25.10592,4.2854 24.8638555,4.41794839 24.5688017,4.41794839 C24.2694125,4.41794839 24.0237351,4.2854 23.8520017,4.07223871 C23.6771372,3.85704516 23.5817566,3.56552903 23.5817566,3.23946452 C23.5817566,2.90865806 23.6771372,2.60833548 23.8520017,2.40014194 C24.0237351,2.18585161 24.2694125,2.0490129 24.5688017,2.0490129 C24.8638555,2.0490129 25.10592,2.18585161 25.2800619,2.40014194 C25.450591,2.60833548 25.5483802,2.90865806 25.5483802,3.23946452 C25.5483802,3.56552903 25.450591,3.85704516 25.2800619,4.07223871" id="Fill-3" fill="#F4811F"></path>
                    <path d="M28.5973333,1.17423871 C28.1832946,1.17423871 27.777686,1.38672258 27.5300817,1.71120645 L27.5300817,1.7057871 C27.5300817,1.57414194 27.4807054,1.44633548 27.3990538,1.35398065 C27.3205333,1.26410968 27.2068473,1.2090129 27.0844903,1.2090129 C26.9602065,1.2090129 26.8539871,1.26410968 26.7706495,1.35917419 C26.6955011,1.44633548 26.6454022,1.57414194 26.6454022,1.7057871 L26.6454022,4.78330323 C26.6454022,4.91675484 26.6955011,5.03936774 26.7771527,5.12110968 C26.8561548,5.2057871 26.9691183,5.26246452 27.0914753,5.26246452 C27.2133505,5.26246452 27.3205333,5.2057871 27.3990538,5.12110968 C27.4807054,5.03936774 27.5300817,4.91675484 27.5300817,4.78330323 L27.5300817,3.0500129 C27.5300817,2.78514194 27.608843,2.52907742 27.7528774,2.35136774 C27.8971527,2.1680129 28.1105548,2.0490129 28.3873032,2.0490129 C28.6570667,2.0490129 28.8536086,2.1574 28.9843957,2.32991613 C29.1248172,2.50581935 29.1949075,2.76007742 29.1949075,3.04030323 L29.1949075,4.78330323 C29.1949075,4.91675484 29.2416344,5.03936774 29.3278624,5.12110968 C29.4073462,5.2057871 29.5179011,5.26246452 29.6426667,5.26246452 C29.7635785,5.26246452 29.8746151,5.2057871 29.9502452,5.12110968 C30.0285247,5.03936774 30.0776602,4.91675484 30.0776602,4.78330323 L30.0776602,3.01185161 C30.0776602,2.49610968 29.947114,2.03298065 29.6925247,1.70330323 C29.4396215,1.37069032 29.0660473,1.16972258 28.5973333,1.17423871" id="Fill-5" fill="#F4811F"></path>
                    <path d="M33.6993789,4.06429032 L33.6914305,4.06429032 C33.6213402,3.96290323 33.513194,3.90058065 33.3987854,3.90058065 C33.3178563,3.90058065 33.2362047,3.92383871 33.1641875,4.00016129 C32.8968327,4.28535484 32.5663725,4.46170968 32.1819596,4.46170968 C31.9112327,4.46170968 31.6783209,4.354 31.5039381,4.18509677 C31.3497875,4.02680645 31.238751,3.80822581 31.2149058,3.55667742 L33.5847295,3.55667742 C33.6762563,3.55667742 33.7591123,3.5246129 33.8212542,3.46612903 C33.8838778,3.40358065 33.9274735,3.32296774 33.9274735,3.21887097 C33.9274735,2.64103226 33.7335811,2.13251613 33.4192585,1.76106452 C33.1008413,1.3966129 32.6465789,1.16990323 32.1354735,1.17419355 C31.6185875,1.17419355 31.1602305,1.40632258 30.8259166,1.77709677 C30.4930477,2.15306452 30.2940972,2.6703871 30.2940972,3.23941935 C30.2940972,3.80370968 30.5022004,4.32125806 30.8382004,4.69270968 C31.1754047,5.06348387 31.6438778,5.29448387 32.1610047,5.29448387 C32.7270262,5.29448387 33.2988284,5.03141935 33.6478348,4.62677419 L33.6478348,4.61796774 C33.7227424,4.52741935 33.7673015,4.41270968 33.7673015,4.30070968 C33.7673015,4.21806452 33.7403252,4.1406129 33.6993789,4.06429032 M32.1354735,2.009 C32.3799467,2.01170968 32.5914219,2.10767742 32.749908,2.26506452 C32.8944241,2.40822581 32.9924542,2.60829032 33.0362908,2.83590323 L31.2346563,2.83590323 C31.2821058,2.59564516 31.3777273,2.40009677 31.5200757,2.25603226 C31.6783209,2.09977419 31.8866649,2.01170968 32.1354735,2.009" id="Fill-7" fill="#F4811F"></path>
                    <g id="Group-11" transform="translate(33.479570, 1.035977)">
                        <mask id="mask-6" fill="white">
                            <use xlink:href="#path-5"></use>
                        </mask>
                        <g id="Clip-10"></g>
                        <path d="M3.64712946,0.617422581 C3.64712946,0.426164516 3.53801978,0.262003226 3.38724129,0.204196774 L3.38338753,0.204196774 C3.34003269,0.181841935 3.29523269,0.173035484 3.25452731,0.173035484 C3.09339183,0.173035484 2.9488757,0.272616129 2.88480688,0.439712903 L1.97724559,2.69845484 L1.05667785,0.435196774 C0.995981075,0.272616129 0.848092903,0.173035484 0.685993978,0.173035484 C0.633727312,0.173035484 0.576884301,0.181841935 0.53136172,0.204196774 L0.529193978,0.204196774 C0.382510108,0.272616129 0.281830538,0.439712903 0.281830538,0.625325806 C0.281830538,0.650390323 0.287852043,0.675229032 0.298690753,0.705487097 C0.32952086,0.819293548 0.415748817,1.05480968 0.529193978,1.34474516 C0.851946667,2.18293871 1.40279398,3.4914871 1.51551656,3.77239032 C1.27561978,4.32945484 0.885907957,4.78739032 0.354088602,5.0524871 C0.281830538,5.09313226 0.221133763,5.14122903 0.181391828,5.20174516 C0.135146667,5.26926129 0.110338065,5.34919677 0.110338065,5.43906774 C0.110338065,5.55264839 0.148393978,5.65516452 0.218484301,5.73487419 C0.281830538,5.81142258 0.375766022,5.87103548 0.482948817,5.87103548 C0.535215484,5.87103548 0.588686452,5.84597097 0.629150968,5.82835806 C1.44494452,5.48355161 2.01433806,4.76164839 2.34792946,3.92864839 L3.61196387,0.798067742 C3.64158968,0.741164516 3.64712946,0.675229032 3.64712946,0.617422581" id="Fill-9" fill="#F4811F" mask="url(#mask-6)"></path>
                    </g>
                    <path d="M21.1212731,1.17245484 C20.6253419,1.17245484 20.1708387,1.44274516 19.9294968,1.85777742 C19.8305032,1.66945484 19.7028473,1.50664839 19.5383398,1.38584194 C19.344929,1.2481 19.115871,1.17245484 18.8456258,1.17245484 C18.4551914,1.17245484 18.1719398,1.38584194 17.9476989,1.69790645 C17.9467355,1.56626129 17.907957,1.44635806 17.8272688,1.3564871 C17.7571785,1.26322903 17.6377118,1.20542258 17.5230624,1.20542258 C17.4026323,1.20542258 17.2593204,1.26322903 17.1834495,1.3564871 C17.1121548,1.44635806 17.0659097,1.56987419 17.0659097,1.70490645 L17.0659097,3.03400323 L17.0659097,4.77158387 C17.0659097,4.90322903 17.1121548,5.02584194 17.1834495,5.11480968 C17.2554667,5.2064871 17.3922753,5.2624871 17.504757,5.2624871 C17.6251871,5.2624871 17.7552516,5.2064871 17.8272688,5.11480968 C17.907957,5.02584194 17.9505892,4.90503548 17.9505892,4.77158387 L17.9505892,3.0507129 C17.9505892,2.77974516 17.9590194,2.5291 18.0804129,2.34958387 C18.2083097,2.17074516 18.3913634,2.05513226 18.6541419,2.05513226 C18.9053591,2.05784194 19.0742022,2.15742258 19.188129,2.33174516 C19.3010925,2.49974516 19.3360172,2.7531 19.3360172,3.0401 L19.3360172,4.77158387 C19.3360172,5.03329355 19.5171441,5.2624871 19.753428,5.2624871 C19.8668731,5.2624871 20.0053677,5.2064871 20.0788301,5.11480968 C20.1489204,5.02584194 20.2072086,4.90322903 20.2072086,4.77158387 L20.2072086,3.00826129 C20.2072086,2.7531 20.2594753,2.50855161 20.3883355,2.33784194 C20.5135828,2.16622903 20.6963957,2.05513226 20.9502624,2.05513226 C21.2065376,2.05784194 21.3676731,2.15742258 21.4844903,2.33174516 C21.5964903,2.49974516 21.6010667,2.7531 21.6010667,3.0401 L21.6010667,4.77158387 C21.6010667,4.90322903 21.6427355,5.02584194 21.7210151,5.11480968 C21.7915871,5.2064871 21.9149075,5.2624871 22.0353376,5.2624871 C22.1499871,5.2624871 22.2884817,5.2064871 22.3624258,5.11480968 C22.4411871,5.02584194 22.4833376,4.90503548 22.4833376,4.77158387 L22.4833376,2.98951935 C22.4833376,2.4624871 22.3872344,2.01787419 22.1591398,1.69361613 C21.9387527,1.3564871 21.5878194,1.16974516 21.1212731,1.17245484" id="Fill-12" fill="#F4811F"></path>
                </g>
            </g>
        </g>
    </g>
</svg>