<?xml version="1.0" encoding="UTF-8"?>
<svg width="360px" height="55px" viewBox="0 0 360 55" version="1.1" xmlns="http://www.w3.org/2000/svg" xmlns:xlink="http://www.w3.org/1999/xlink">
    <!-- Generator: Sketch 51 (57462) - http://www.bohemiancoding.com/sketch -->
    <title>Background/Pattern</title>
    <desc>Created with Sketch.</desc>
    <defs>
        <rect id="path-1" x="0" y="0" width="360" height="55"></rect>
        <polygon id="path-3" points="0.840656613 0.825680755 76.2661352 0.825680755 76.2661352 141.997656 0.840656613 141.997656"></polygon>
        <polygon id="path-5" points="0.487813197 0.825680755 127.132892 0.825680755 127.132892 195.664328 0.487813197 195.664328"></polygon>
        <polygon id="path-7" points="0.4842767 0.825680755 176.13182 0.825680755 176.13182 141.997656 0.4842767 141.997656"></polygon>
        <polygon id="path-9" points="0.501718057 0.825680755 127.146685 0.825680755 127.146685 195.651873 0.501718057 195.651873"></polygon>
        <polygon id="path-11" points="0.0663506752 0.825680755 114.70271 0.825680755 114.70271 42.1418633 0.0663506752 42.1418633"></polygon>
        <polygon id="path-13" points="0.840656613 0.452138057 48.033809 0.452138057 48.033809 72.5976434 0.840656613 72.5976434"></polygon>
        <polygon id="path-15" points="0.954998796 0.837491533 115.599947 0.837491533 115.599947 12.6353851 0.954998796 12.6353851"></polygon>
        <polygon id="path-17" points="0.962836335 0.837491533 115.611005 0.837491533 115.611005 12.6353851 0.962836335 12.6353851"></polygon>
        <polygon id="path-19" points="0.0585131359 0.825680755 114.691651 0.825680755 114.691651 42.1418633 0.0585131359 42.1418633"></polygon>
        <polygon id="path-21" points="0.313105688 0.734308281 175.969416 0.734308281 175.969416 73.8366894 0.313105688 73.8366894"></polygon>
        <polygon id="path-23" points="0.304378779 0.727866039 175.959142 0.727866039 175.959142 73.8366894 0.304378779 73.8366894"></polygon>
        <polygon id="path-25" points="0.967560331 0.458000393 279.327968 0.458000393 279.327968 177.986277 0.967560331 177.986277"></polygon>
        <polygon id="path-27" points="0.0574959762 0.452460169 59.9631371 0.452460169 59.9631371 72.5994965 0.0574959762 72.5994965"></polygon>
        <polygon id="path-29" points="0.0161045328 0.406976412 137.192368 0.406976412 137.192368 102.723598 0.0161045328 102.723598"></polygon>
        <polygon id="path-31" points="0.973894781 0.458000393 279.313904 0.458000393 279.313904 177.986277 0.973894781 177.986277"></polygon>
        <polygon id="path-33" points="0.261322886 0.288934579 171.548704 0.288934579 171.548704 181.019607 0.261322886 181.019607"></polygon>
        <polygon id="path-35" points="0.493448856 0.825680755 93.1733114 0.825680755 93.1733114 142.017841 0.493448856 142.017841"></polygon>
        <polygon id="path-37" points="0.840656613 0.406976412 6.81973283 0.406976412 6.81973283 102.723598 0.840656613 102.723598"></polygon>
        <polygon id="path-39" points="0.840656613 0.0697904815 277.244149 0.0697904815 277.244149 192.488264 0.840656613 192.488264"></polygon>
        <polygon id="path-41" points="0.182840129 0.676972322 65.2587879 0.676972322 65.2587879 169.396621 0.182840129 169.396621"></polygon>
        <polygon id="path-43" points="0.169204958 0.676972322 177.033479 0.676972322 177.033479 169.396621 0.169204958 169.396621"></polygon>
        <polygon id="path-45" points="0.840656613 0.681267151 105.099684 0.681267151 105.099684 169.396621 0.840656613 169.396621"></polygon>
    </defs>
    <g id="UI" stroke="none" stroke-width="1" fill="none" fill-rule="evenodd">
        <g id="Menu" transform="translate(0.000000, -712.000000)">
            <rect fill="#F4F5F8" x="0" y="0" width="360" height="767"></rect>
            <g id="Buttom-Bar" transform="translate(0.000000, 712.000000)">
                <g id="Background/Pattern">
                    <mask id="mask-2" fill="white">
                        <use xlink:href="#path-1"></use>
                    </mask>
                    <use id="Mask" fill="#231F20" xlink:href="#path-1"></use>
                    <g id="Background/Pattern/White" opacity="0.07" mask="url(#mask-2)">
                        <g transform="translate(-381.000000, -459.000000)" id="Group">
                            <g transform="translate(-1.001109, -1.001567)">
                                <g id="Group-3" transform="translate(0.000000, 0.067644)">
                                    <mask id="mask-4" fill="white">
                                        <use xlink:href="#path-3"></use>
                                    </mask>
                                    <g id="Clip-2"></g>
                                    <path d="M75.9354489,25.1128278 C76.6075448,14.8514091 76.2145942,5.11073839 75.1237805,-4.17575426 C14.6158298,-9.32310606 -41.1691982,-40.4563169 -75.5631121,-91.3328539 C-88.2438213,-81.5996991 -96.4421021,-68.0688423 -98.6537913,-53.0090266 C-104.387005,-13.9110565 -74.4540467,-1.33257787 -61.9826964,2.87850135 C-53.2926905,5.80972171 -40.9362193,13.3664722 -57.9050287,30.9430574 C-57.9801832,31.0257328 -58.081105,31.101966 -58.1659222,31.1835677 C-27.3622454,65.5078361 -9.06320161,107.904234 -3.46741328,141.997656 C42.357498,118.038956 72.7242051,74.1275567 75.9354489,25.1128278" id="Fill-1" fill="#FFFFFF" mask="url(#mask-4)"></path>
                                </g>
                                <g id="Group-6" transform="translate(104.142646, 0.067644)">
                                    <mask id="mask-6" fill="white">
                                        <use xlink:href="#path-5"></use>
                                    </mask>
                                    <g id="Clip-5"></g>
                                    <path d="M3.76695759,134.469466 C52.2169077,140.080659 90.4802041,164.533264 118.411906,195.664328 C118.497797,195.578431 118.606234,195.501124 118.681388,195.418449 C135.631946,177.847232 123.275475,170.293703 114.594058,167.343156 C102.115192,163.134224 72.1822339,150.563261 77.9165212,111.451333 C80.1346522,96.3936649 88.3275649,82.8606607 101.011495,73.1457589 C85.6445497,50.432559 74.5485266,23.8357606 69.2683871,-6.19260566 C18.2105763,25.9176787 -9.43875932,83.5102535 3.76695759,134.469466" id="Fill-4" fill="#FFFFFF" mask="url(#mask-6)"></path>
                                </g>
                                <g id="Group-9" transform="translate(355.373357, 0.067644)">
                                    <mask id="mask-8" fill="white">
                                        <use xlink:href="#path-7"></use>
                                    </mask>
                                    <g id="Clip-8"></g>
                                    <path d="M175.797617,25.1128278 C176.474007,14.8514091 176.083204,5.11073839 174.990243,-4.17575426 C114.466188,-9.32310606 58.6929698,-40.4563169 24.2915405,-91.3328539 C11.6183468,-81.5996991 3.41469777,-68.0688423 1.20515587,-53.0090266 C-4.52376327,-13.9110565 25.3952378,-1.33257787 37.866588,2.87850135 C46.5705512,5.80972171 58.928096,13.3664722 41.9496239,30.9430574 C41.8744694,31.0257328 41.7703268,31.101966 41.6844359,31.1835677 C72.4945545,65.5078361 90.7850092,107.904234 96.3915339,141.997656 C142.216445,118.038956 172.579931,74.1275567 175.797617,25.1128278" id="Fill-7" fill="#FFFFFF" mask="url(#mask-8)"></path>
                                </g>
                                <path d="M288.134678,63.7657463 C253.273733,52.7484379 224.149222,58.6527532 205.154463,73.2132951 C239.540861,124.084463 295.337699,155.227338 355.84565,160.375763 C349.764578,109.06008 318.926545,73.5117856 288.134678,63.7657463" id="Fill-10" fill="#FFFFFF"></path>
                                <g id="Group-14" transform="translate(559.364106, 0.067644)">
                                    <mask id="mask-10" fill="white">
                                        <use xlink:href="#path-9"></use>
                                    </mask>
                                    <g id="Clip-13"></g>
                                    <path d="M3.77898231,134.473116 C52.2203434,140.101489 90.4814924,164.533694 118.415341,195.651873 C118.500159,195.577787 118.606449,195.50048 118.681603,195.417805 C135.653633,177.847662 123.289647,170.294132 114.606083,167.343585 C102.128291,163.13358 72.1974795,150.563691 77.9274723,111.451763 C80.143456,96.3930207 88.3395896,82.8600164 101.022446,73.1418935 C85.6565744,50.4254726 74.5626986,23.8361901 69.2814854,-6.19324989 C18.2333373,25.9181082 -9.42351369,83.5106829 3.77898231,134.473116" id="Fill-12" fill="#FFFFFF" mask="url(#mask-10)"></path>
                                </g>
                                <g id="Group-17" transform="translate(737.587603, 0.067644)">
                                    <mask id="mask-12" fill="white">
                                        <use xlink:href="#path-11"></use>
                                    </mask>
                                    <g id="Clip-16"></g>
                                    <path d="M0.0663506752,-30.0095764 C0.534455762,-28.1756847 1.01544448,-26.3321296 1.5995022,-24.5240069 C27.0146023,54.7606723 97.3259189,48.5643087 114.70271,31.184212 C86.7720817,0.0552959153 48.5163008,-24.3812038 0.0663506752,-30.0095764" id="Fill-15" fill="#FFFFFF" mask="url(#mask-12)"></path>
                                </g>
                                <path d="M388.631258,299.010354 C389.104731,300.849614 389.580351,302.693169 390.162262,304.508808 C415.580583,383.777381 485.884384,377.581018 503.264396,360.195552 C475.334841,329.070931 437.089797,304.635505 388.631258,299.010354" id="Fill-18" fill="#FFFFFF"></path>
                                <g id="Group-22" transform="translate(0.000000, 298.558216)">
                                    <mask id="mask-14" fill="white">
                                        <use xlink:href="#path-13"></use>
                                    </mask>
                                    <g id="Clip-21"></g>
                                    <path d="M-66.5918137,0.452138057 C-66.1172668,2.29139831 -65.6427199,4.13495339 -65.0683249,5.95059208 C-39.6457094,85.2191657 30.6570181,79.022802 48.033809,61.6298208 C20.0967391,30.5127156 -18.1515263,6.07728952 -66.5918137,0.452138057" id="Fill-20" fill="#FFFFFF" mask="url(#mask-14)"></path>
                                </g>
                                <path d="M811.075378,160.375226 C804.990011,109.060617 774.148757,73.5123225 743.371922,63.7652095 C708.510976,52.7489747 679.386465,58.65329 660.387411,73.2095371 C694.778104,124.077484 750.568501,155.227875 811.075378,160.375226" id="Fill-23" fill="#FFFFFF"></path>
                                <g id="Group-27" transform="translate(38.650879, 627.112586)">
                                    <mask id="mask-16" fill="white">
                                        <use xlink:href="#path-15"></use>
                                    </mask>
                                    <g id="Clip-26"></g>
                                    <path d="M0.954998796,0.837491533 C1.42847206,2.67997291 1.9073135,4.51601204 2.48922396,6.33272444 C27.9086185,85.6152562 98.2070516,79.4242611 115.599947,62.0355747 C87.6607298,30.905585 49.4081699,6.46586412 0.954998796,0.837491533" id="Fill-25" fill="#FFFFFF" mask="url(#mask-16)"></path>
                                </g>
                                <g id="Group-30" transform="translate(493.872340, 627.112586)">
                                    <mask id="mask-18" fill="white">
                                        <use xlink:href="#path-17"></use>
                                    </mask>
                                    <g id="Clip-29"></g>
                                    <path d="M0.962836335,0.837491533 C1.43953051,2.67997291 1.90763559,4.51601204 2.49491422,6.33272444 C27.9153825,85.6152562 98.2191836,79.4242611 115.611005,62.0355747 C87.6707146,30.9152483 49.4095656,6.46586412 0.962836335,0.837491533" id="Fill-28" fill="#FFFFFF" mask="url(#mask-18)"></path>
                                </g>
                                <g id="Group-33" transform="translate(282.366142, 0.067644)">
                                    <mask id="mask-20" fill="white">
                                        <use xlink:href="#path-19"></use>
                                    </mask>
                                    <g id="Clip-32"></g>
                                    <path d="M0.0585131359,-30.0095764 C0.538428214,-28.1756847 1.01404875,-26.3321296 1.59166466,-24.5240069 C27.0121329,54.7606723 97.3180813,48.5643087 114.691651,31.184212 C86.7599496,0.0595907437 48.5084633,-24.3812038 0.0585131359,-30.0095764" id="Fill-31" fill="#FFFFFF" mask="url(#mask-20)"></path>
                                </g>
                                <g id="Group-36" transform="translate(567.953191, 565.911282)">
                                    <mask id="mask-22" fill="white">
                                        <use xlink:href="#path-21"></use>
                                    </mask>
                                    <g id="Clip-35"></g>
                                    <path d="M175.635176,117.15959 C176.310493,106.902466 175.926131,97.1671635 174.80955,87.876376 C114.311262,82.7365401 58.5219397,51.5979607 24.1280258,0.734308281 C11.446243,10.4481364 3.25010945,23.9768457 1.03412573,39.0355877 C-4.69586704,78.1421475 25.2285022,90.7206261 37.700926,94.932779 C46.3984474,97.8672205 58.7484768,105.421824 41.7904037,122.991966 C41.7152493,123.086453 41.6143275,123.160538 41.5316576,123.236772 C72.3353343,157.557819 90.6161263,199.950996 96.2162092,234.068039 C142.045415,210.098602 172.416417,166.178613 175.635176,117.15959" id="Fill-34" fill="#FFFFFF" mask="url(#mask-22)"></path>
                                </g>
                                <g id="Group-39" transform="translate(112.731730, 565.911282)">
                                    <mask id="mask-24" fill="white">
                                        <use xlink:href="#path-23"></use>
                                    </mask>
                                    <g id="Clip-38"></g>
                                    <path d="M175.626265,117.15959 C176.301582,106.902466 175.909705,97.1671635 174.809228,87.876376 C114.302351,82.7365401 58.5130285,51.5979607 24.1115992,0.727866039 C11.4384055,10.4481364 3.23475646,23.9768457 1.02521456,39.0355877 C-4.70370458,78.1421475 25.2174438,90.7206261 37.6866467,94.932779 C46.3906099,97.8672205 58.7470811,105.421824 41.777198,122.991966 C41.7031172,123.086453 41.6011218,123.160538 41.5195255,123.236772 C72.321055,157.557819 90.6050679,199.958512 96.2008562,234.068039 C142.033283,210.098602 172.401064,166.187203 175.626265,117.15959" id="Fill-37" fill="#FFFFFF" mask="url(#mask-24)"></path>
                                </g>
                                <g id="Group-42" transform="translate(559.364106, 461.761694)">
                                    <mask id="mask-26" fill="white">
                                        <use xlink:href="#path-25"></use>
                                    </mask>
                                    <g id="Clip-41"></g>
                                    <path d="M111.527325,7.20940628 C110.940047,5.40128353 110.467647,3.55987587 109.990953,1.71632079 C105.796259,1.24496337 101.536073,0.833733558 97.1803339,0.639392574 C60.4158328,-1.02055859 27.5454077,8.82533545 0.967560331,25.5365127 C6.24555255,55.5723949 17.3469438,82.1638248 32.71711,104.884541 C51.710796,90.3164827 80.8438958,84.4078726 115.698399,95.42196 C146.488119,105.161557 177.321857,140.707704 183.398634,192.024461 C184.801876,192.155453 186.16754,192.390595 187.557898,192.472197 C221.81224,194.707655 253.07758,187.462279 279.327968,173.734934 C273.721444,139.628628 255.437431,97.2343775 224.624091,62.9122566 C207.237638,80.2805425 136.941352,86.4983803 111.527325,7.20940628" id="Fill-40" fill="#FFFFFF" mask="url(#mask-26)"></path>
                                </g>
                                <g id="Group-45" transform="translate(843.804993, 298.558216)">
                                    <mask id="mask-28" fill="white">
                                        <use xlink:href="#path-27"></use>
                                    </mask>
                                    <g id="Clip-44"></g>
                                    <path d="M114.701371,61.6376589 C86.7685952,30.511964 48.5074461,6.07653792 0.0574959762,0.452460169 C0.537411054,2.29172042 1.00551614,4.1352755 1.58850023,5.95091419 C27.0100421,85.2194878 97.3084751,79.0220504 114.701371,61.6376589" id="Fill-43" fill="#FFFFFF" mask="url(#mask-28)"></path>
                                </g>
                                <path d="M783.98809,524.673843 C784.069687,524.595462 784.171682,524.504197 784.245763,524.427964 C801.227456,506.862116 788.86669,499.295702 780.168095,496.362334 C767.702113,492.158771 737.775596,479.585661 743.505589,440.482322 C745.720499,425.410696 753.917707,411.877692 766.591974,402.161716 C751.234691,379.443148 740.134374,352.847423 734.858529,322.816909 C683.803939,354.923973 656.156751,412.5144 669.354952,463.477907 C717.800608,469.110575 756.05102,493.553517 783.98809,524.673843" id="Fill-46" fill="#FFFFFF"></path>
                                <g id="Group-50" transform="translate(766.575762, 386.602197)">
                                    <mask id="mask-30" fill="white">
                                        <use xlink:href="#path-29"></use>
                                    </mask>
                                    <g id="Clip-49"></g>
                                    <path d="M82.9963203,6.12002306 C48.1418168,-4.91016991 19.0022751,1.00166135 0.0161045328,15.5600558 C34.4175339,66.4398139 90.1907519,97.5655088 150.706218,102.723598 C144.628367,51.3982512 113.781745,15.8531779 82.9963203,6.12002306" id="Fill-48" fill="#FFFFFF" mask="url(#mask-30)"></path>
                                </g>
                                <g id="Group-53" transform="translate(104.142646, 461.761694)">
                                    <mask id="mask-32" fill="white">
                                        <use xlink:href="#path-31"></use>
                                    </mask>
                                    <g id="Clip-52"></g>
                                    <path d="M111.511113,7.20940628 C110.925982,5.40128353 110.458951,3.55987587 109.981183,1.71632079 C105.774679,1.24496337 101.520935,0.833733558 97.1684166,0.639392574 C60.3996209,-1.02055859 27.5388585,8.82533545 0.973894781,25.5365127 C6.24544519,55.5638052 17.3403947,82.1552351 32.7008981,104.877025 C51.6924368,90.3164827 80.8351994,84.4078726 115.685408,95.42196 C146.476201,105.161557 177.317455,140.707704 183.398527,192.024461 C184.783517,192.155453 186.165286,192.390595 187.558865,192.472197 C221.796028,194.707655 253.068883,187.462279 279.313904,173.734934 C273.717042,139.628628 255.428734,97.2343775 224.619689,62.9122566 C207.228941,80.2805425 136.932655,86.4983803 111.511113,7.20940628" id="Fill-51" fill="#FFFFFF" mask="url(#mask-32)"></path>
                                </g>
                                <path d="M394.349655,392.72222 C359.487636,381.692027 330.35561,387.603859 311.361924,402.162253 C345.76228,453.042011 401.544087,484.167706 462.047743,489.325795 C455.965598,438.000448 425.13508,402.455375 394.349655,392.72222" id="Fill-54" fill="#FFFFFF"></path>
                                <path d="M564.669691,140.027188 C564.09637,138.201886 563.622896,136.374437 563.141908,134.540545 C558.938625,134.048787 554.694543,133.646147 550.332362,133.457175 C513.571082,131.80474 480.709246,141.637749 454.148577,158.340337 C459.415833,188.37944 470.508635,214.967649 485.865917,237.688365 C504.861751,223.12138 534.005587,217.210623 568.851501,228.24189 C599.636926,237.986855 630.487843,273.533002 636.573209,324.849759 C637.952831,324.967867 639.3346,325.210525 640.732473,325.300716 C674.966415,327.518995 706.23605,320.272546 732.48107,306.539832 C726.886356,272.432452 708.586238,230.047865 677.781488,195.719302 C660.39396,213.106914 590.104117,219.298983 564.669691,140.027188" id="Fill-56" fill="#FFFFFF"></path>
                                <path d="M485.865488,237.688472 C473.198736,247.4023 464.989719,260.934231 462.786619,276.001562 C457.049111,315.110269 486.967038,327.67479 499.445904,331.878353 C508.150941,334.8289 520.509559,342.393167 503.535381,359.947204 C503.460227,360.037395 503.350716,360.110407 503.265899,360.196304 C534.081386,394.516277 552.365399,436.927708 557.955819,471.027571 C603.794687,447.049544 634.161394,403.140293 637.387669,354.114827 C638.056544,343.867366 637.664667,334.121327 636.571706,324.849866 C576.063755,319.705736 520.274433,288.552124 485.865488,237.688472" id="Fill-58" fill="#FFFFFF"></path>
                                <g id="Group-62" transform="translate(732.219425, 141.796980)">
                                    <mask id="mask-34" fill="white">
                                        <use xlink:href="#path-33"></use>
                                    </mask>
                                    <g id="Clip-61"></g>
                                    <path d="M83.0235907,19.0197548 C81.6257172,18.9263423 80.2503901,18.6912005 78.8557376,18.5784612 C79.9486985,27.8638802 80.3405755,37.5884453 79.6652587,47.8444955 C76.4572358,96.8656665 46.0830133,140.773844 0.261322886,164.742208 L0.265617428,164.775493 C0.828202441,170.32119 1.7064363,175.688652 2.6404992,181.019607 C29.2065365,164.309504 62.0737407,154.475421 98.8414628,156.136445 C103.191834,156.329713 107.438062,156.728058 111.641345,157.213374 C98.4388495,106.256309 126.088185,48.663734 177.143849,16.5437863 C176.209786,11.2192728 175.333699,5.85395844 174.767893,0.306113892 L174.764672,0.288934579 C148.529315,14.0012479 117.267196,21.2423285 83.0235907,19.0197548" id="Fill-60" fill="#FFFFFF" mask="url(#mask-34)"></path>
                                </g>
                                <g id="Group-65" transform="translate(810.594818, 0.067644)">
                                    <mask id="mask-36" fill="white">
                                        <use xlink:href="#path-35"></use>
                                    </mask>
                                    <g id="Clip-64"></g>
                                    <path d="M24.293473,-91.3330686 C11.6277948,-81.5999138 3.42414577,-68.069057 1.21460386,-53.0092413 C-4.51538891,-13.9112712 25.4025385,-1.33279262 37.8738887,2.87828661 C46.5757046,5.81058068 58.9289549,13.3662575 41.9622928,30.9428426 C41.8957274,31.0255181 41.7872902,31.1017513 41.6971048,31.183353 C72.5093706,65.5076214 90.7912363,107.905093 96.3891719,142.017841 C142.215157,118.048404 172.581864,74.1402264 175.81136,25.1126131 C176.48775,14.8511944 176.095873,5.11052365 174.999691,-4.175969 C114.49174,-9.31580485 58.6981233,-40.4511632 24.293473,-91.3330686" id="Fill-63" fill="#FFFFFF" mask="url(#mask-36)"></path>
                                </g>
                                <path d="M328.761905,524.673843 C328.844575,524.595462 328.944423,524.516008 329.023872,524.427964 C345.989461,506.862116 333.640505,499.295702 324.942984,496.362334 C312.463044,492.158771 282.546191,479.585661 288.27511,440.482322 C290.485725,425.410696 298.688301,411.886281 311.361494,402.161716 C295.999917,379.443148 284.8996,352.853865 279.621608,322.816909 C228.568091,354.935783 200.918756,412.5144 214.124473,463.477907 C262.566907,469.110575 300.828056,493.553517 328.761905,524.673843" id="Fill-66" fill="#FFFFFF"></path>
                                <g id="Group-70" transform="translate(0.000000, 386.602197)">
                                    <mask id="mask-38" fill="white">
                                        <use xlink:href="#path-37"></use>
                                    </mask>
                                    <g id="Clip-69"></g>
                                    <path d="M-60.8901649,6.12002306 C-95.7425212,-4.91016991 -124.876695,1.00166135 -143.86716,15.5600558 C-109.47432,66.4398139 -53.684997,97.5773196 6.81973283,102.723598 C0.734366696,51.3982512 -30.0918564,15.8531779 -60.8901649,6.12002306" id="Fill-68" fill="#FFFFFF" mask="url(#mask-38)"></path>
                                </g>
                                <path d="M30.642524,237.682137 C17.9628885,247.402407 9.76675497,260.934338 7.55184489,276.00167 C1.81970484,315.110377 31.7419268,327.674897 44.2186452,331.87846 C52.9129457,334.829007 65.2780059,342.393274 48.3006075,359.947311 C48.2265266,360.037503 48.1180894,360.110515 48.0343458,360.187822 C78.8519798,394.515311 97.1435082,436.908488 102.739297,471.027679 C148.564208,447.049652 178.930915,403.1404 182.143232,354.114934 C182.817476,343.867474 182.426672,334.120361 181.334785,324.849974 C120.818245,319.705843 65.0299961,288.552232 30.642524,237.682137" id="Fill-71" fill="#FFFFFF"></path>
                                <path d="M375.832556,297.932996 C380.190443,298.126263 384.429156,298.524608 388.631365,299.009924 C375.422427,248.052859 403.086794,190.448474 454.146752,158.340337 C453.205173,153.016897 452.33016,147.650509 451.765428,142.103738 L451.765428,142.065085 C425.521481,155.798872 394.248626,163.049616 360.006095,160.816305 C358.605,160.722893 357.242557,160.487751 355.846831,160.375012 C356.953749,169.660431 357.335963,179.386069 356.655278,189.641046 C353.436519,238.663291 323.067665,282.571469 277.244901,306.546274 L277.252416,306.572043 C277.81178,312.11774 278.686793,317.485202 279.623003,322.816158 C306.198703,306.110349 339.068055,296.273045 375.832556,297.932996" id="Fill-73" fill="#FFFFFF"></path>
                                <g id="Group-77" transform="translate(0.000000, 133.207323)">
                                    <mask id="mask-40" fill="white">
                                        <use xlink:href="#path-39"></use>
                                    </mask>
                                    <g id="Clip-76"></g>
                                    <path d="M109.443506,6.81986535 C108.85408,4.99456329 108.387049,3.16711381 107.909281,1.33000098 C103.709219,0.841464249 99.464064,0.438824089 95.110472,0.249851641 C58.3491917,-1.40258358 25.4809139,8.43042599 -1.09263887,25.1330135 C4.18750062,55.1721169 15.2835237,81.7560308 30.6429535,104.474599 C49.6344922,89.9140573 78.7632975,84.0032998 113.621022,95.0345664 C144.4043,104.779532 175.254143,140.325679 181.335214,191.642436 C182.729867,191.760544 184.108415,192.003201 185.501994,192.093393 C219.744525,194.311672 251.009865,187.065223 277.244149,173.338951 C271.647287,139.233719 253.364348,96.8405418 222.555303,62.5237894 C205.164555,79.8995912 134.866122,86.0916601 109.443506,6.81986535" id="Fill-75" fill="#FFFFFF" mask="url(#mask-40)"></path>
                                </g>
                                <g id="Group-80" transform="translate(838.509342, 470.351350)">
                                    <mask id="mask-42" fill="white">
                                        <use xlink:href="#path-41"></use>
                                    </mask>
                                    <g id="Clip-79"></g>
                                    <path d="M82.9408134,19.4228245 C81.5407926,19.3240434 80.1686864,19.0878279 78.7729603,18.9750886 C79.8669949,28.2454757 80.2653136,37.9829253 79.5899969,48.2400491 C76.3712376,97.2633676 46.0077514,141.179061 0.182840129,165.145277 L0.182840129,165.162457 L0.182840129,165.145277 L1.37028102,173.293641 C0.964446788,170.600783 0.463059,167.956243 0.182840129,165.181784 C0.463059,167.956243 0.964446788,170.600783 1.37028102,173.293641 L2.5577219,181.406571 C29.1248329,164.696468 61.9866689,154.869901 98.7500964,156.516967 C103.111204,156.716677 107.363874,157.116096 111.557495,157.597117 C98.3571458,106.657231 125.998966,49.0646562 177.044967,16.9532982 C176.119493,11.601942 175.269174,6.21622722 174.67438,0.676972322 C148.440096,14.3957279 117.177976,21.6378822 82.9408134,19.4228245" id="Fill-78" fill="#FFFFFF" mask="url(#mask-42)"></path>
                                </g>
                                <g id="Group-83" transform="translate(383.287881, 470.351350)">
                                    <mask id="mask-44" fill="white">
                                        <use xlink:href="#path-43"></use>
                                    </mask>
                                    <g id="Clip-82"></g>
                                    <path d="M82.9250309,19.4228245 C81.531452,19.3240434 80.1550513,19.0878279 78.7582515,18.9750886 C79.8512124,28.2454757 80.2495312,37.9829253 79.5731408,48.2400491 C76.3640442,97.2601465 45.9887481,141.179061 0.169204958,165.145277 L0.169204958,165.162457 L0.178867678,165.177489 L0.169204958,165.162457 L1.36308766,173.293641 C0.956179795,170.600783 0.455865642,167.956243 0.178867678,165.181784 C0.455865642,167.956243 0.956179795,170.600783 1.36308766,173.293641 L2.53979219,181.406571 C29.1240813,164.696468 61.986991,154.869901 98.7471976,156.516967 C103.101863,156.716677 107.349165,157.116096 111.546007,157.597117 C98.342437,106.657231 125.983183,49.0646562 177.033479,16.9532982 C176.108005,11.601942 175.256612,6.21622722 174.659671,0.676972322 C148.427534,14.3957279 117.175078,21.6378822 82.9250309,19.4228245" id="Fill-81" fill="#FFFFFF" mask="url(#mask-44)"></path>
                                </g>
                                <g id="Group-86" transform="translate(0.000000, 470.351350)">
                                    <mask id="mask-46" fill="white">
                                        <use xlink:href="#path-45"></use>
                                    </mask>
                                    <g id="Clip-85"></g>
                                    <path d="M10.9794263,19.4228245 C9.58262648,19.3240434 8.21374119,19.0878279 6.82016228,18.9750886 C7.92278596,28.2454757 8.30714748,37.9829253 7.63934619,48.2400491 C4.41951326,97.2633676 -25.9611511,141.179061 -71.7860624,165.145277 L-71.7860624,165.162457 L-71.7699579,165.177489 L-71.7860624,165.162457 L-71.0441802,170.167006 C-71.2653492,168.503833 -71.6013971,166.887904 -71.7699579,165.181784 C-71.6013971,166.887904 -71.2653492,168.503833 -71.0441802,170.167006 L-69.4036652,181.422677 C-42.8236706,164.696468 -9.9543191,154.869901 26.8069611,156.516967 C31.166995,156.716677 35.4100026,157.116096 39.6057702,157.597117 C26.4086424,106.657231 54.0493889,49.0721721 105.099684,16.9532982 C104.17421,11.601942 103.324965,6.21622722 102.722655,0.681267151 C76.4754876,14.3957279 45.2176631,21.6378822 10.9794263,19.4228245" id="Fill-84" fill="#FFFFFF" mask="url(#mask-46)"></path>
                                </g>
                            </g>
                        </g>
                    </g>
                </g>
            </g>
        </g>
    </g>
</svg>