<?xml version="1.0" encoding="UTF-8"?>
<svg width="24px" height="24px" viewBox="0 0 24 24" version="1.1" xmlns="http://www.w3.org/2000/svg" xmlns:xlink="http://www.w3.org/1999/xlink">
    <!-- Generator: sketchtool 51 (57462) - http://www.bohemiancoding.com/sketch -->
    <title>DE9D0C46-8C67-4CAA-A15B-54446C1F9A40</title>
    <desc>Created with sketchtool.</desc>
    <defs></defs>
    <g id="Symbols" stroke="none" stroke-width="1" fill="none" fill-rule="evenodd">
        <g id="icn/cart" fill="#9B9B9B" fill-rule="nonzero">
            <g id="-g-shopping-cart" transform="translate(1.000000, 2.000000)">
                <path d="M21.0829896,2.5 L5.51069444,2.5 L5.17740972,0.7575 C5.09322917,0.3175 4.71617361,0 4.27777778,0 L0.458333333,0 C0.20521875,0 0,0.209882813 0,0.46875 L0,1.40625 C0,1.66511719 0.20521875,1.875 0.458333333,1.875 L3.52305556,1.875 L6.18115972,15.7695703 C5.75956944,16.2187891 5.5,16.8282031 5.5,17.5 C5.5,18.8807031 6.59442361,20 7.94444444,20 C9.29446528,20 10.3888889,18.8807031 10.3888889,17.5 C10.3893649,17.0610502 10.2762627,16.6297876 10.061066,16.25 L15.6056389,16.25 C15.3904421,16.6297876 15.2773399,17.0610502 15.277816,17.5 C15.277816,18.8807031 16.3722396,20 17.7222604,20 C19.0722812,20 20.1667049,18.8807031 20.1667049,17.5 C20.1667049,16.7915625 19.8781076,16.1525 19.415191,15.6975781 L19.4547222,15.5117578 C19.5790069,14.9273828 19.1437431,14.375 18.5589861,14.375 L7.7825,14.375 L7.42385417,12.5 L19.3559896,12.5 C19.7872049,12.5 20.1601354,12.1926172 20.2517257,11.7616406 L21.9787257,3.63664063 C22.102934,3.05230469 21.6676701,2.5 21.0829896,2.5 Z M7.94444444,18.4375 C7.43897917,18.4375 7.02777778,18.0169531 7.02777778,17.5 C7.02777778,16.9830469 7.43897917,16.5625 7.94444444,16.5625 C8.44990972,16.5625 8.86111111,16.9830469 8.86111111,17.5 C8.86111111,18.0169531 8.44990972,18.4375 7.94444444,18.4375 Z M17.7222222,18.4375 C17.2167569,18.4375 16.8055556,18.0169531 16.8055556,17.5 C16.8055556,16.9830469 17.2167569,16.5625 17.7222222,16.5625 C18.2276875,16.5625 18.6388889,16.9830469 18.6388889,17.5 C18.6388889,18.0169531 18.2276875,18.4375 17.7222222,18.4375 Z M18.6174236,10.625 L7.06520833,10.625 L5.86934028,4.375 L19.9458264,4.375 L18.6174236,10.625 Z" id="Shape"></path>
            </g>
        </g>
    </g>
</svg>