<svg xmlns="http://www.w3.org/2000/svg" width="56" height="56" viewBox="0 0 56 56">
    <g fill="none" fill-rule="evenodd">
        <rect width="46.667" height="46.667" fill="#F4F5F7" rx="9.917" transform="translate(5 5)"/>
        <g fill-rule="nonzero" transform="translate(11 11)">
            <path fill="#81C784" d="M.012 12.324l6.393 14.035L31.98 15.044 25.588 1.008z"/>
            <path fill="#1B5E20" d="M.012 12.324l6.393 14.035L31.98 15.044 25.588 1.008.012 12.324zm7.175 12.003L2.072 13.098 24.805 3.041l5.115 11.228L7.187 24.327z"/>
            <ellipse cx="23.812" cy="10.23" fill="#1B5E20" rx="1.558" ry="1.539" transform="rotate(-24.179 23.812 10.23)"/>
            <ellipse cx="15.996" cy="13.685" fill="#1B5E20" rx="4.672" ry="4.615" transform="rotate(-24.174 15.996 13.685)"/>
            <ellipse cx="2.587" cy="13.293" fill="#1B5E20" rx="1.947" ry="1.923" transform="rotate(-24.174 2.587 13.293)"/>
            <ellipse cx="24.61" cy="3.55" fill="#1B5E20" rx="1.947" ry="1.923" transform="rotate(-24.174 24.61 3.55)"/>
            <ellipse cx="29.404" cy="14.076" fill="#1B5E20" rx="1.947" ry="1.923" transform="rotate(-24.174 29.404 14.076)"/>
            <path fill="#A5D6A7" d="M3.902 14.846H32v15.385H3.902z"/>
            <path fill="#388E3C" d="M3.902 14.846v15.385H32V14.846H3.902zm1.561 13.846V16.385H30.44v12.307H5.463z"/>
            <ellipse cx="9.366" cy="22.538" fill="#388E3C" rx="1.561" ry="1.538"/>
            <ellipse cx="26.537" cy="22.538" fill="#388E3C" rx="1.561" ry="1.538"/>
            <ellipse cx="17.951" cy="22.538" fill="#388E3C" rx="4.683" ry="4.615"/>
            <path fill="#388E3C" d="M31.22 26.778a1.95 1.95 0 0 0-1.171-.393c-1.078 0-1.951.86-1.951 1.923 0 .435.152.832.4 1.154h2.722v-2.684zM5.854 26.384c-.441 0-.844.15-1.171.393v2.685h2.722c.248-.323.4-.72.4-1.155 0-1.062-.873-1.923-1.951-1.923zM4.683 18.3c.327.242.73.392 1.17.392 1.079 0 1.952-.86 1.952-1.923 0-.434-.152-.831-.399-1.154H4.683V18.3zM30.049 18.692c.44 0 .843-.15 1.17-.393v-2.684h-2.723c-.246.323-.398.72-.398 1.154 0 1.063.873 1.923 1.95 1.923z"/>
        </g>
    </g>
</svg>
