<?xml version="1.0" encoding="UTF-8"?>
<svg width="32px" height="47px" viewBox="0 0 32 47" version="1.1" xmlns="http://www.w3.org/2000/svg" xmlns:xlink="http://www.w3.org/1999/xlink">
    <!-- Generator: Sketch 51.2 (57519) - http://www.bohemiancoding.com/sketch -->
    <title>close</title>
    <desc>Created with Sketch.</desc>
    <defs></defs>
    <g id="Symbols" stroke="none" stroke-width="1" fill="none" fill-rule="evenodd">
        <g id="icn/close-modal-alt" fill="#C3C3C3">
            <path d="M17.4142387,16.0010623 L27.7067912,5.70708106 C28.0977363,5.31611975 28.0977363,4.68418229 27.7067912,4.29322098 C27.3158462,3.90225967 26.6839351,3.90225967 26.2929901,4.29322098 L16.0004375,14.5872023 L5.70788494,4.29422088 C5.31693992,3.90325957 4.68502878,3.90325957 4.29408376,4.29422088 C3.90213888,4.68618209 3.90213888,5.31811955 4.2930839,5.70908086 L14.5856365,16.0010623 L4.29608348,26.2920439 C3.90513846,26.6830052 3.90513846,27.3159426 4.29608348,27.705904 C4.68802836,28.0978652 5.3199395,28.0978652 5.71088452,27.7069039 L16.0004375,17.4149224 L26.2919902,27.705904 C26.6829352,28.0968653 27.3148464,28.0968653 27.7057914,27.705904 C28.0967364,27.3149427 28.0967364,26.6830052 27.7057914,26.2920439 L17.4142387,16.0010623 Z" id="Shape" fill-rule="nonzero"></path>
            <path d="M8.7025,40.675 C8.57249935,41.4550039 8.26000248,42.0499979 7.765,42.46 C7.26999753,42.870002 6.67750345,43.075 5.9875,43.075 C5.59749805,43.075 5.23500168,43.0025007 4.9,42.8575 C4.56499833,42.7124993 4.2675013,42.5100013 4.0075,42.25 C3.8274991,42.0599991 3.6875005,41.865001 3.5875,41.665 C3.4874995,41.464999 3.41500023,41.2450012 3.37,41.005 C3.32499978,40.7649988 3.29750005,40.5000014 3.2875,40.21 C3.27749995,39.9199986 3.2725,39.5950018 3.2725,39.235 C3.2725,38.8749982 3.27749995,38.5500014 3.2875,38.26 C3.29750005,37.9699985 3.32749975,37.7025012 3.3775,37.4575 C3.42750025,37.2124988 3.49999953,36.987501 3.595,36.7825 C3.69000048,36.577499 3.8274991,36.3850009 4.0075,36.205 C4.2675013,35.9449987 4.5674983,35.7425007 4.9075,35.5975 C5.2475017,35.4524993 5.6074981,35.38 5.9875,35.38 C6.67750345,35.38 7.26999753,35.584998 7.765,35.995 C8.26000248,36.4050021 8.5774993,36.9949961 8.7175,37.765 L7.4575,37.765 C7.36749955,37.3849981 7.2025012,37.0800012 6.9625,36.85 C6.7224988,36.6199989 6.39750205,36.505 5.9875,36.505 C5.77749895,36.505 5.57750095,36.5399996 5.3875,36.61 C5.19749905,36.6800004 5.04750055,36.7849993 4.9375,36.925 C4.84749955,37.0150005 4.7725003,37.1174994 4.7125,37.2325 C4.6524997,37.3475006 4.60500018,37.4899992 4.57,37.66 C4.53499983,37.8300008 4.51250005,38.0424987 4.5025,38.2975 C4.49249995,38.5525013 4.4875,38.8649981 4.4875,39.235 C4.4875,39.6050019 4.49249995,39.9124988 4.5025,40.1575 C4.51250005,40.4025012 4.53499983,40.6099992 4.57,40.78 C4.60500018,40.9500009 4.6524997,41.0924994 4.7125,41.2075 C4.7725003,41.3225006 4.84749955,41.4249995 4.9375,41.515 C5.04750055,41.6550007 5.19749905,41.7649996 5.3875,41.845 C5.57750095,41.9250004 5.77749895,41.965 5.9875,41.965 C6.39750205,41.965 6.72499878,41.8450012 6.97,41.605 C7.21500123,41.3649988 7.38249955,41.0550019 7.4725,40.675 L8.7025,40.675 Z M11.5525,43 C11.2824987,43 11.050001,42.9575004 10.855,42.8725 C10.659999,42.7874996 10.4975007,42.6725007 10.3675,42.5275 C10.2374994,42.3824993 10.1425003,42.2175009 10.0825,42.0325 C10.0224997,41.8474991 9.9925,41.6500011 9.9925,41.44 L9.9925,34.75 L11.1325,34.75 L11.1325,41.365 C11.1325,41.5850011 11.1774996,41.7499995 11.2675,41.86 C11.3575005,41.9700006 11.5174989,42.025 11.7475,42.025 L12.2575,42.025 L12.2575,43 L11.5525,43 Z M17.7325,40.15 C17.7325,40.5300019 17.6900004,40.8949983 17.605,41.245 C17.5199996,41.5950018 17.380001,41.9049986 17.185,42.175 C16.989999,42.4450013 16.7325016,42.6624992 16.4125,42.8275 C16.0924984,42.9925008 15.7025023,43.075 15.2425,43.075 C14.8024978,43.075 14.4250016,42.9975008 14.11,42.8425 C13.7949984,42.6874992 13.540001,42.4775013 13.345,42.2125 C13.149999,41.9474987 13.0075004,41.6375018 12.9175,41.2825 C12.8274995,40.9274982 12.7825,40.550002 12.7825,40.15 C12.7825,39.7799981 12.8224996,39.4200017 12.9025,39.07 C12.9825004,38.7199983 13.119999,38.4100014 13.315,38.14 C13.510001,37.8699986 13.7624985,37.6525008 14.0725,37.4875 C14.3825015,37.3224992 14.7724976,37.24 15.2425,37.24 C15.6925022,37.24 16.0749984,37.3149992 16.39,37.465 C16.7050016,37.6150008 16.962499,37.8224987 17.1625,38.0875 C17.362501,38.3525013 17.5074995,38.6624982 17.5975,39.0175 C17.6875005,39.3725018 17.7325,39.749998 17.7325,40.15 Z M16.5925,40.15 C16.5925,39.939999 16.5750002,39.7250011 16.54,39.505 C16.5049998,39.2849989 16.4375005,39.0825009 16.3375,38.8975 C16.2374995,38.7124991 16.1000009,38.5600006 15.925,38.44 C15.7499991,38.3199994 15.5225014,38.26 15.2425,38.26 C14.9824987,38.26 14.7675009,38.3149995 14.5975,38.425 C14.4274992,38.5350005 14.2925005,38.6799991 14.1925,38.86 C14.0924995,39.0400009 14.0250002,39.2424989 13.99,39.4675 C13.9549998,39.6925011 13.9375,39.9199988 13.9375,40.15 C13.9375,40.3600011 13.9549998,40.5749989 13.99,40.795 C14.0250002,41.0150011 14.0899995,41.2174991 14.185,41.4025 C14.2800005,41.5875009 14.4124992,41.7399994 14.5825,41.86 C14.7525009,41.9800006 14.9724987,42.04 15.2425,42.04 C15.5025013,42.04 15.7199991,41.9850006 15.895,41.875 C16.0700009,41.7649994 16.2099995,41.6200009 16.315,41.44 C16.4200005,41.2599991 16.4924998,41.0575011 16.5325,40.8325 C16.5725002,40.6074989 16.5925,40.3800011 16.5925,40.15 Z M23.1775,41.26 C23.1775,41.5600015 23.1200006,41.8224989 23.005,42.0475 C22.8899994,42.2725011 22.730001,42.4599992 22.525,42.61 C22.319999,42.7600008 22.0775014,42.8749996 21.7975,42.955 C21.5174986,43.0350004 21.2175016,43.075 20.8975,43.075 C20.4474978,43.075 20.0325019,43.0200005 19.6525,42.91 C19.2724981,42.7999995 18.9225016,42.5800016 18.6025,42.25 L19.3225,41.485 C19.5525012,41.7250012 19.8024987,41.8874996 20.0725,41.9725 C20.3425013,42.0575004 20.6174986,42.1 20.8975,42.1 C21.2375017,42.1 21.5224989,42.0350007 21.7525,41.905 C21.9825012,41.7749994 22.0975,41.5750014 22.0975,41.305 C22.0975,41.1149991 22.0400006,40.9600006 21.925,40.84 C21.8099994,40.7199994 21.6225013,40.6500001 21.3625,40.63 L20.4775,40.54 C19.9674974,40.4999998 19.5700014,40.3575012 19.285,40.1125 C18.9999986,39.8674988 18.8575,39.4900025 18.8575,38.98 C18.8575,38.6999986 18.9124995,38.4525011 19.0225,38.2375 C19.1325005,38.0224989 19.2799991,37.8400008 19.465,37.69 C19.6500009,37.5399993 19.8674987,37.4275004 20.1175,37.3525 C20.3675013,37.2774996 20.6374986,37.24 20.9275,37.24 C21.3375021,37.24 21.7149983,37.2899995 22.06,37.39 C22.4050017,37.4900005 22.7074987,37.6549988 22.9675,37.885 L22.2625,38.62 C22.0924992,38.4599992 21.8925012,38.3475003 21.6625,38.2825 C21.4324989,38.2174997 21.1875013,38.185 20.9275,38.185 C20.5874983,38.185 20.3350008,38.2549993 20.17,38.395 C20.0049992,38.5350007 19.9225,38.7099989 19.9225,38.92 C19.9225,39.0900009 19.9774994,39.2349994 20.0875,39.355 C20.1975006,39.4750006 20.3974986,39.5499998 20.6875,39.58 L21.5575,39.655 C22.0675025,39.7050002 22.4649986,39.8574987 22.75,40.1125 C23.0350014,40.3675013 23.1775,40.7499975 23.1775,41.26 Z M25.2625,40.495 C25.2625,40.9850024 25.3899987,41.3724986 25.645,41.6575 C25.9000013,41.9425014 26.2624977,42.085 26.7325,42.085 C27.0525016,42.085 27.314999,42.0375005 27.52,41.9425 C27.725001,41.8474995 27.927499,41.6950011 28.1275,41.485 L28.8775,42.175 C28.5774985,42.4650015 28.2675016,42.6874992 27.9475,42.8425 C27.6274984,42.9975008 27.2125026,43.075 26.7025,43.075 C26.3424982,43.075 26.0050016,43.0250005 25.69,42.925 C25.3749984,42.8249995 25.1025012,42.6575012 24.8725,42.4225 C24.6424988,42.1874988 24.4600007,41.8850019 24.325,41.515 C24.1899993,41.1449981 24.1225,40.6900027 24.1225,40.15 C24.1225,39.2199953 24.3424978,38.5025025 24.7825,37.9975 C25.2225022,37.4924975 25.8174962,37.24 26.5675,37.24 C26.9475019,37.24 27.2899985,37.3074993 27.595,37.4425 C27.9000015,37.5775007 28.1574989,37.7649988 28.3675,38.005 C28.577501,38.2450012 28.7374994,38.5349983 28.8475,38.875 C28.9575005,39.2150017 29.0125,39.584998 29.0125,39.985 L29.0125,40.495 L25.2625,40.495 Z M27.8725,39.685 C27.8625,39.5049991 27.8350002,39.3250009 27.79,39.145 C27.7449998,38.9649991 27.6750005,38.8025007 27.58,38.6575 C27.4849995,38.5124993 27.3550008,38.3975004 27.19,38.3125 C27.0249992,38.2274996 26.8175012,38.185 26.5675,38.185 C26.1274978,38.185 25.8025011,38.3349985 25.5925,38.635 C25.3824989,38.9350015 25.2725,39.284998 25.2625,39.685 L27.8725,39.685 Z" id="Close"></path>
        </g>
    </g>
</svg>