<?xml version="1.0" encoding="UTF-8"?>
<svg width="64px" height="64px" viewBox="0 0 64 64" version="1.1" xmlns="http://www.w3.org/2000/svg" xmlns:xlink="http://www.w3.org/1999/xlink">
    <!-- Generator: sketchtool 51 (57462) - http://www.bohemiancoding.com/sketch -->
    <title>C4436B1A-C0EC-4798-946A-B63AB09DD99D</title>
    <desc>Created with sketchtool.</desc>
    <defs></defs>
    <g id="Symbols" stroke="none" stroke-width="1" fill="none" fill-rule="evenodd">
        <g id="icn/incomplete" fill-rule="nonzero">
            <g id="-g-Group">
                <path d="M32,64 C14.326888,64 1.1574075e-13,49.673112 1.1574075e-13,32 C1.1574075e-13,14.326888 14.326888,0 32,0 C49.673112,0 64,14.326888 64,32 C64,49.673112 49.673112,64 32,64 Z" id="-g-Combined-Shape" fill="#EF4D4D"></path>
                <path d="M37.9614545,32.4636875 L44.8191515,25.614625 C46.3318788,24.1014375 46.3318788,21.646625 44.8191515,20.1334375 C43.3044848,18.6221875 40.8472727,18.6221875 39.3326061,20.1334375 L32.4768485,26.9844375 L25.6210909,20.1334375 C24.1064242,18.6221875 21.6492121,18.6221875 20.1345455,20.1334375 C18.6218182,21.646625 18.6218182,24.1014375 20.1345455,25.614625 L26.9922424,32.4636875 L20.1345455,39.31275 C18.6218182,40.8259375 18.6218182,43.28075 20.1345455,44.7939375 C21.6492121,46.3051875 24.1064242,46.3051875 25.6210909,44.7939375 L32.4768485,37.9429375 L39.3326061,44.7939375 C40.8472727,46.3051875 43.3044848,46.3051875 44.8191515,44.7939375 C46.3318788,43.28075 46.3318788,40.8259375 44.8191515,39.31275 L37.9614545,32.4636875 Z" id="-g-Shape" fill="#FFFFFF"></path>
            </g>
        </g>
    </g>
</svg>