<?xml version="1.0" encoding="UTF-8"?>
<svg width="100px" height="100px" viewBox="0 0 100 100" version="1.1" xmlns="http://www.w3.org/2000/svg" xmlns:xlink="http://www.w3.org/1999/xlink">
    <!-- Generator: sketchtool 51 (57462) - http://www.bohemiancoding.com/sketch -->
    <title>4357C05D-7A74-4E9F-B0A6-23BDF14FCD30</title>
    <desc>Created with sketchtool.</desc>
    <defs></defs>
    <g id="Symbols" stroke="none" stroke-width="1" fill="none" fill-rule="evenodd">
        <g id="icn/personal/service-area" fill-rule="nonzero">
            <g id="location" transform="translate(19.000000, 5.000000)">
                <ellipse id="Oval" fill="#EAEAEA" cx="31" cy="84.375" rx="28.1818182" ry="5.625"></ellipse>
                <path d="M31,0 C13.8823636,0 0,13.8515625 0,30.9375 C0,48.0234375 19.7272727,70.3125 31,84.375 C42.2727273,70.3125 62,48.0234375 62,30.9375 C62,13.8515625 48.1232727,0 31,0 Z M31,42.1875 C24.7746364,42.1875 19.7272727,37.1503125 19.7272727,30.9375 C19.7272727,24.7246875 24.7746364,19.6875 31,19.6875 C37.2253636,19.6875 42.2727273,24.7246875 42.2727273,30.9375 C42.2727273,37.1503125 37.2253636,42.1875 31,42.1875 Z" id="Shape" fill="#ED3124"></path>
                <path d="M31,42.1565625 C24.7746364,42.1565625 19.7272727,37.119375 19.7272727,30.9065625 L14.0909091,30.9065625 C14.0909091,40.224375 21.6633636,47.7815625 31,47.7815625 C40.3366364,47.7815625 47.9090909,40.224375 47.9090909,30.9065625 L42.2727273,30.9065625 C42.2727273,37.119375 37.2253636,42.1565625 31,42.1565625 Z" id="Shape" fill="#FFFFFF" opacity="0.15"></path>
                <path d="M31,19.6565625 C37.2253636,19.6565625 42.2727273,24.69375 42.2727273,30.9065625 L47.9090909,30.9065625 C47.9090909,21.58875 40.3366364,14.0315625 31,14.0315625 C21.6633636,14.0315625 14.0909091,21.58875 14.0909091,30.9065625 L19.7272727,30.9065625 C19.7272727,24.69375 24.7746364,19.6565625 31,19.6565625 Z" id="Shape" fill="#000000" opacity="0.15"></path>
            </g>
        </g>
    </g>
</svg>